# File generated by ImageToStl.com - Free Image and 3D model conversion tools

mtllib spotlight.mtl

# pCylinder2_0
o obj1
v -3.45103836 34.54561234 -5.22378302
v -2.75409698 35.6766243 -2.61948442
v 12.20331001 25.81302643 -2.61948442
v 11.50637436 24.68201065 -5.22378302
v -4.53654528 32.78400421 -7.29056597
v -3.45103836 34.54561234 -5.22378302
v 11.50637436 24.68201065 -5.22378302
v 10.42086506 22.92040634 -7.29056597
v -5.90436316 30.56425858 -8.61752129
v 9.05304146 20.70066071 -8.61752129
v -7.42060804 28.10365295 -9.07475948
v 7.53680325 18.24005127 -9.07475948
v -8.93684196 25.64304352 -8.61752129
v 6.02056074 15.77944374 -8.61752129
v -10.30466461 23.42329788 -7.29056406
v 4.65274286 13.5596981 -7.29056406
v -11.39016914 21.66169739 -5.22378111
v 3.56723547 11.7980957 -5.22378111
v -12.08710861 20.5306797 -2.61948347
v 2.87029696 10.66707802 -2.61948347
v -12.32725525 20.14095688 0.26740253
v 2.63014889 10.2773571 0.26740253
v -12.08710861 20.5306797 3.15428877
v 2.87029696 10.66707802 3.15428877
v -11.39016914 21.66169739 5.75858593
v 3.56723547 11.7980957 5.75858593
v -10.3046627 23.42329788 7.82536793
v 4.65274286 13.5596981 7.82536793
v -8.93684196 25.64304352 9.15232372
v 6.02056313 15.77944374 9.15232372
v -7.42060804 28.10365295 9.60956097
v 7.53680325 18.24005127 9.60956097
v -5.90436697 30.56425858 9.15232277
v 9.05304146 20.70066071 9.15232277
v -4.53654623 32.7840004 7.82536745
v 10.4208622 22.92040443 7.82536745
v -3.45104313 34.54560471 5.75858545
v -4.53654623 32.7840004 7.82536745
v 10.4208622 22.92040443 7.82536745
v 11.50636673 24.68200493 5.75858545
v -2.75409937 35.6766243 3.15428805
v 12.20330906 25.81302643 3.15428805
v -2.51395273 36.0663414 0.26740253
v 12.44345474 26.20274353 0.26740253
v 11.50637436 24.68201065 -5.22378302
v 12.20331001 25.81302643 -2.61948442
v 7.53680325 18.24005127 0.26740253
v 10.42086506 22.92040634 -7.29056597
v 9.05304146 20.70066071 -8.61752129
v 7.53680325 18.24005127 -9.07475948
v 6.02056074 15.77944374 -8.61752129
v 4.65274286 13.5596981 -7.29056406
v 3.56723547 11.7980957 -5.22378111
v 2.87029696 10.66707802 -2.61948347
v 2.63014889 10.2773571 0.26740253
v 2.87029696 10.66707802 3.15428877
v 3.56723547 11.7980957 5.75858593
v 4.65274286 13.5596981 7.82536793
v 6.02056313 15.77944374 9.15232372
v 7.53680325 18.24005127 9.60956097
v 9.05304146 20.70066071 9.15232277
v 10.4208622 22.92040443 7.82536745
v 11.50636673 24.68200493 5.75858545
v 12.20330906 25.81302643 3.15428805
v 12.44345474 26.20274353 0.26740253
v -2.3455596 33.71504593 -2.14704561
v -2.92839766 32.76919937 -4.32521868
v -6.24841881 27.38134384 0.2674025
v -3.83623672 31.29592323 -6.05391693
v -4.9802413 29.43938828 -7.163867
v -6.24842024 27.38134575 -7.5463419
v -7.51659489 25.32329941 -7.16386604
v -8.66060066 23.46677017 -6.05391645
v -9.56843567 21.99349213 -4.32521725
v -10.15127563 21.04764366 -2.14704418
v -10.35209846 20.721735 0.26740259
v -10.15127563 21.04764366 2.68185019
v -9.56843948 21.99349785 4.86002254
v -8.66059875 23.46677017 6.58871984
v -7.5165925 25.32330322 7.69866896
v -6.24841881 27.38134384 8.08114433
v -4.9802413 29.43938828 7.69866943
v -3.83624148 31.2959156 6.58871984
v -2.9283998 32.76919174 4.86001968
v -2.34556103 33.71504974 2.6818471
v -2.14473343 34.04095459 0.26740244
v -4.10058355 33.49150467 -4.32521915
v -3.51774406 34.43734741 -2.14704418
v -2.75409698 35.6766243 -2.61948442
v -3.45103836 34.54561234 -5.22378302
v -5.00842333 32.01823044 -6.05391741
v -4.53654528 32.78400421 -7.29056597
v -6.1524291 30.16169548 -7.163867
v -5.90436316 30.56425858 -8.61752129
v -7.42060804 28.10365295 -7.5463419
v -7.42060804 28.10365295 -9.07475948
v -8.68878174 26.04560852 -7.163867
v -8.93684196 25.64304352 -8.61752129
v -9.83278847 24.18907547 -6.05391645
v -10.30466461 23.42329788 -7.29056406
v -10.74062347 22.71580124 -4.32521725
v -11.39016914 21.66169739 -5.22378111
v -11.32346153 21.76995087 -2.1470437
v -12.08710861 20.5306797 -2.61948347
v -11.52428722 21.4440403 0.26740259
v -12.32725525 20.14095688 0.26740253
v -11.32346249 21.76994896 2.681849
v -12.08710861 20.5306797 3.15428877
v -10.74062538 22.71580505 4.86002207
v -11.39016914 21.66169739 5.75858593
v -9.83278561 24.18907738 6.58871984
v -10.3046627 23.42329788 7.82536793
v -8.68877888 26.04560852 7.69866943
v -8.93684196 25.64304352 9.15232372
v -7.42060804 28.10365295 8.08114433
v -7.42060804 28.10365295 9.60956097
v -6.15242624 30.16169739 7.69866943
v -5.90436697 30.56425858 9.15232277
v -5.00842667 32.01822281 6.58871937
v -4.53654623 32.7840004 7.82536745
v -4.10058546 33.49149704 4.86002159
v -3.45104313 34.54560471 5.75858545
v -3.51774836 34.43735123 2.68184805
v -2.75409937 35.6766243 3.15428805
v -3.3169198 34.76325989 0.26740244
v -2.51395273 36.0663414 0.26740253
v -3.51774406 34.43734741 -2.14704418
v -4.10058355 33.49150467 -4.32521915
v -5.00842333 32.01823044 -6.05391741
v -6.1524291 30.16169548 -7.163867
v -7.42060804 28.10365295 -7.5463419
v -8.68878174 26.04560852 -7.163867
v -9.83278847 24.18907547 -6.05391645
v -10.74062347 22.71580124 -4.32521725
v -11.32346153 21.76995087 -2.1470437
v -11.52428722 21.4440403 0.26740259
v -11.32346249 21.76994896 2.681849
v -10.74062538 22.71580505 4.86002207
v -9.83278561 24.18907738 6.58871984
v -8.68877888 26.04560852 7.69866943
v -7.42060804 28.10365295 8.08114433
v -6.15242624 30.16169739 7.69866943
v -5.00842667 32.01822281 6.58871937
v -4.10058546 33.49149704 4.86002159
v -3.51774836 34.43735123 2.68184805
v -3.3169198 34.76325989 0.26740244
vn 0.44586 0.67611 -0.58659
vn 0.5237 0.79416 -0.30831
vn 0.52338 0.79367 -0.31011
vn 0.44469 0.67434 -0.5895
vn 0.32454 0.49215 -0.80775
vn 0.32234 0.4888 -0.81066
vn 0.17154 0.26012 -0.95022
vn 0.16849 0.2555 -0.95201
vn 0.00168 0.00255 -1
vn -0.00168 -0.00255 -1
vn -0.16849 -0.2555 -0.95201
vn -0.17154 -0.26012 -0.95022
vn -0.32234 -0.4888 -0.81066
vn -0.32455 -0.49215 -0.80775
vn -0.44469 -0.67434 -0.5895
vn -0.44586 -0.67611 -0.58659
vn -0.52338 -0.79367 -0.31011
vn -0.5237 -0.79416 -0.30831
vn -0.55052 -0.83482 0
vn -0.55052 -0.83482 0
vn -0.52338 -0.79367 0.31011
vn -0.5237 -0.79416 0.30831
vn -0.44469 -0.67434 0.5895
vn -0.44586 -0.67611 0.58659
vn -0.32234 -0.4888 0.81066
vn -0.32454 -0.49215 0.80775
vn -0.16849 -0.2555 0.95201
vn -0.17154 -0.26012 0.95022
vn 0.00168 0.00255 1
vn -0.00168 -0.00255 1
vn 0.17154 0.26012 0.95022
vn 0.16849 0.2555 0.95201
vn 0.32454 0.49215 0.80775
vn 0.32234 0.4888 0.81066
vn 0.44586 0.67611 0.58659
vn 0.44469 0.67434 0.5895
vn 0.5237 0.79416 0.30831
vn 0.52338 0.79367 0.31011
vn 0.55052 0.83482 0
vn 0.55052 0.83482 0
vn 0.85135 -0.5246 0
vn 0.85135 -0.5246 0
vn 0.85135 -0.5246 0
vn 0.85135 -0.5246 -0
vn 0.85135 -0.5246 -0
vn 0.85135 -0.5246 0
vn 0.85135 -0.5246 -0
vn 0.85135 -0.5246 -0
vn 0.85135 -0.5246 -0
vn 0.85135 -0.5246 0
vn 0.85135 -0.5246 0
vn 0.85135 -0.5246 0
vn 0.85135 -0.5246 0
vn 0.85135 -0.5246 0
vn 0.85135 -0.5246 -0
vn 0.85135 -0.5246 0
vn 0.85135 -0.5246 0
vn 0.85135 -0.5246 -0
vn 0.85135 -0.5246 -0
vn 0.85135 -0.5246 0
vn -0.85135 0.5246 0
vn -0.85135 0.5246 0
vn -0.85135 0.5246 -0
vn -0.85135 0.5246 0
vn -0.85135 0.5246 0
vn -0.85135 0.5246 0
vn -0.85135 0.5246 -0
vn -0.85135 0.5246 0
vn -0.85135 0.5246 0
vn -0.85135 0.5246 0
vn -0.85135 0.5246 0
vn -0.85135 0.5246 -0
vn -0.85135 0.5246 -0
vn -0.85135 0.5246 0
vn -0.85135 0.5246 0
vn -0.85135 0.5246 0
vn -0.85135 0.5246 0
vn -0.85135 0.5246 -0
vn -0.85135 0.5246 0
vn -0.85135 0.5246 -0
vn -0.85135 0.5246 -0
vn -0.85135 0.5246 0
vn -0.85135 0.5246 0
vn -0.85135 0.5246 0
vn -0.85135 0.5246 0
vn -0.85135 0.5246 -0
vn -0.85135 0.5246 -0
vn -0.85135 0.52461 -0
vn -0.85135 0.52461 -0
vn -0.85135 0.5246 -0
vn -0.85135 0.5246 -0
vn -0.85135 0.5246 -0
vn -0.85135 0.5246 -0
vn -0.85135 0.5246 0
vn -0.85135 0.5246 0
vn -0.85135 0.5246 0
vn -0.85135 0.5246 0
vn -0.85135 0.5246 0
vn -0.85135 0.5246 0
vn -0.85135 0.5246 -0
vn -0.85135 0.5246 -0
vn -0.85135 0.5246 -0
vn -0.85135 0.5246 -0
vn -0.85135 0.5246 0
vn -0.85135 0.5246 0
vn -0.85135 0.5246 0
vn -0.85135 0.5246 0
vn -0.85135 0.5246 0
vn -0.85135 0.5246 0
vn -0.85135 0.5246 0
vn -0.85135 0.5246 0
vn -0.85135 0.5246 0
vn -0.85135 0.5246 0
vn -0.85135 0.5246 0
vn -0.85135 0.5246 0
vn -0.85135 0.5246 0
vn -0.85135 0.5246 0
vn -0.85135 0.5246 -0
vn -0.85135 0.5246 -0
vn -0.85135 0.5246 -0
vn -0.85135 0.5246 -0
vn -0.42426 -0.6885 0.58819
vn -0.49888 -0.8096 0.30931
vn -0.49888 -0.8096 0.30931
vn -0.42426 -0.6885 0.58819
vn -0.30814 -0.50006 0.80931
vn -0.30814 -0.50006 0.80931
vn -0.16196 -0.26283 0.95115
vn -0.16196 -0.26283 0.95115
vn 0 0 1
vn 0 0 1
vn 0.16196 0.26283 0.95115
vn 0.16196 0.26283 0.95115
vn 0.30814 0.50006 0.80931
vn 0.30814 0.50006 0.80931
vn 0.42426 0.6885 0.58819
vn 0.42426 0.6885 0.58819
vn 0.49888 0.8096 0.30931
vn 0.49888 0.8096 0.30931
vn 0.5246 0.85135 0
vn 0.5246 0.85135 0
vn 0.49888 0.8096 -0.30932
vn 0.42426 0.6885 -0.5882
vn 0.42426 0.6885 -0.5882
vn 0.30814 0.50006 -0.80931
vn 0.30814 0.50006 -0.80931
vn 0.16195 0.26283 -0.95115
vn 0.16195 0.26283 -0.95115
vn -0 0 -1
vn -0 -0 -1
vn -0.16196 -0.26283 -0.95115
vn -0.16196 -0.26283 -0.95115
vn -0.30814 -0.50006 -0.80931
vn -0.30814 -0.50006 -0.80931
vn -0.42426 -0.6885 -0.5882
vn -0.42426 -0.6885 -0.5882
vn -0.49888 -0.8096 -0.30932
vn -0.49888 -0.8096 -0.30932
vn -0.5246 -0.85135 0
vn -0.5246 -0.85135 0
vt 0.78873 0.95339
vt 0.62934 0.9448
vt 0.70964 0.09292
vt 0.86904 0.10152
vt 0.68284 0.89577
vt 0.6372 0.96136
vt 0.04711 0.56318
vt 0.09275 0.49758
vt 0.73947 0.81091
vt 0.14937 0.41273
vt 0.80154 0.71512
vt 0.21144 0.31693
vt 0.86297 0.61775
vt 0.27287 0.21957
vt 0.91775 0.52835
vt 0.32765 0.13016
vt 0.96052 0.45566
vt 0.37043 0.05747
vt 0.98709 0.4068
vt 0.397 0.00861
vt 0.99487 0.38655
vt 0.40477 -0.01164
vt 0.98309 0.3969
vt 0.39299 -0.00129
vt 0.95289 0.43682
vt 0.3628 0.03864
vt 0.90725 0.50242
vt 0.31716 0.10423
vt 0.85063 0.58727
vt 0.26053 0.18908
vt 0.78856 0.68307
vt 0.19847 0.28488
vt 0.72713 0.78043
vt 0.13703 0.38225
vt 0.67235 0.86984
vt 0.08225 0.47165
vt 0.20703 0.90955
vt 0.13096 0.89848
vt 0.21127 0.04661
vt 0.28733 0.05767
vt 0.32352 0.92175
vt 0.40383 0.06987
vt 0.46904 0.9339
vt 0.54934 0.08202
vt 0.62641 0.93559
vt 0.6486 0.89203
vt 0.59184 0.97016
vt 0.54828 0.99235
vt 0.5 1
vt 0.45172 0.99235
vt 0.40816 0.97016
vt 0.37359 0.93559
vt 0.3514 0.89203
vt 0.34375 0.84375
vt 0.3514 0.79547
vt 0.37359 0.75191
vt 0.40816 0.71734
vt 0.45172 0.69515
vt 0.5 0.6875
vt 0.54828 0.69515
vt 0.59184 0.71734
vt 0.62641 0.75191
vt 0.6486 0.79547
vt 0.65625 0.84375
vt 0.79389 0.90451
vt 0.65451 0.97553
vt 0.5 0.5
vt 0.90451 0.79389
vt 0.97553 0.65451
vt 1 0.5
vt 0.97553 0.34549
vt 0.90451 0.20611
vt 0.79389 0.09549
vt 0.65451 0.02447
vt 0.5 -0
vt 0.34549 0.02447
vt 0.20611 0.09549
vt 0.09549 0.20611
vt 0.02447 0.34549
vt 0 0.5
vt 0.02447 0.65451
vt 0.09549 0.79389
vt 0.20611 0.90451
vt 0.34549 0.97553
vt 0.5 1
vt 0.96699 1.2691
vt 0.74551 1.40412
vt 0.79355 1.58102
vt 1.05836 1.41957
vt 1.14277 1.05879
vt 1.26851 1.16811
vt 1.25563 0.79378
vt 1.40344 0.85124
vt 1.29452 0.5
vt 1.44994 0.5
vt 1.25563 0.20622
vt 1.40344 0.14876
vt 1.14277 -0.05879
vt 1.26851 -0.16811
vt 0.96699 -0.2691
vt 1.05836 -0.41957
vt 0.74551 -0.40412
vt 0.79355 -0.58102
vt 0.5 -0.45064
vt 0.5 -0.63665
vt 0.25449 -0.40412
vt 0.20645 -0.58102
vt 0.03301 -0.2691
vt -0.05836 -0.41957
vt -0.14277 -0.05879
vt -0.26851 -0.16811
vt -0.25563 0.20622
vt -0.40344 0.14876
vt -0.29452 0.5
vt -0.44994 0.5
vt -0.25563 0.79378
vt -0.40344 0.85124
vt -0.14277 1.05879
vt -0.26851 1.16811
vt 0.03301 1.2691
vt -0.05836 1.41957
vt 0.25449 1.40412
vt 0.20645 1.58102
vt 0.5 1.45064
vt 0.5 1.63665
vt 0.5 0.8375
usemtl mat0
f 1/1/1 2/2/2 3/3/3
f 3/3/3 4/4/4 1/1/1
f 5/5/5 6/6/1 7/7/4
f 7/7/4 8/8/6 5/5/5
f 9/9/7 5/5/5 8/8/6
f 8/8/6 10/10/8 9/9/7
f 11/11/9 9/9/7 10/10/8
f 10/10/8 12/12/10 11/11/9
f 13/13/11 11/11/9 12/12/10
f 12/12/10 14/14/12 13/13/11
f 15/15/13 13/13/11 14/14/12
f 14/14/12 16/16/14 15/15/13
f 17/17/15 15/15/13 16/16/14
f 16/16/14 18/18/16 17/17/15
f 19/19/17 17/17/15 18/18/16
f 18/18/16 20/20/18 19/19/17
f 21/21/19 19/19/17 20/20/18
f 20/20/18 22/22/20 21/21/19
f 23/23/21 21/21/19 22/22/20
f 22/22/20 24/24/22 23/23/21
f 25/25/23 23/23/21 24/24/22
f 24/24/22 26/26/24 25/25/23
f 27/27/25 25/25/23 26/26/24
f 26/26/24 28/28/26 27/27/25
f 29/29/27 27/27/25 28/28/26
f 28/28/26 30/30/28 29/29/27
f 31/31/29 29/29/27 30/30/28
f 30/30/28 32/32/30 31/31/29
f 33/33/31 31/31/29 32/32/30
f 32/32/30 34/34/32 33/33/31
f 35/35/33 33/33/31 34/34/32
f 34/34/32 36/36/34 35/35/33
f 37/37/35 38/38/33 39/39/34
f 39/39/34 40/40/36 37/37/35
f 41/41/37 37/37/35 40/40/36
f 40/40/36 42/42/38 41/41/37
f 43/43/39 41/41/37 42/42/38
f 42/42/38 44/44/40 43/43/39
f 2/2/2 43/43/39 44/44/40
f 44/44/40 3/3/3 2/2/2
f 67/45/122 66/46/123 127/46/124
f 127/46/124 128/45/125 67/45/122
f 69/47/126 67/45/122 128/45/125
f 128/45/125 129/47/127 69/47/126
f 70/48/128 69/47/126 129/47/127
f 129/47/127 130/48/129 70/48/128
f 71/49/130 70/48/128 130/48/129
f 130/48/129 131/49/131 71/49/130
f 72/50/132 71/49/130 131/49/131
f 131/49/131 132/50/133 72/50/132
f 73/51/134 72/50/132 132/50/133
f 132/50/133 133/51/135 73/51/134
f 74/52/136 73/51/134 133/51/135
f 133/51/135 134/52/137 74/52/136
f 75/53/138 74/52/136 134/52/137
f 134/52/137 135/53/139 75/53/138
f 76/54/140 75/53/138 135/53/139
f 135/53/139 136/54/141 76/54/140
f 77/55/142 76/54/140 136/54/141
f 136/54/141 137/55/142 77/55/142
f 78/56/143 77/55/142 137/55/142
f 137/55/142 138/56/144 78/56/143
f 79/57/145 78/56/143 138/56/144
f 138/56/144 139/57/146 79/57/145
f 80/58/147 79/57/145 139/57/146
f 139/57/146 140/58/148 80/58/147
f 81/59/149 80/58/147 140/58/148
f 140/58/148 141/59/150 81/59/149
f 82/60/151 81/59/149 141/59/150
f 141/59/150 142/60/152 82/60/151
f 83/61/153 82/60/151 142/60/152
f 142/60/152 143/61/154 83/61/153
f 84/62/155 83/61/153 143/61/154
f 143/61/154 144/62/156 84/62/155
f 85/63/157 84/62/155 144/62/156
f 144/62/156 145/63/158 85/63/157
f 86/64/159 85/63/157 145/63/158
f 145/63/158 146/64/160 86/64/159
f 66/46/123 86/64/159 146/64/160
f 146/64/160 127/46/124 66/46/123
usemtl mat1
f 45/65/41 46/66/42 47/67/43
f 48/68/44 45/65/41 47/67/43
f 49/69/45 48/68/44 47/67/43
f 50/70/46 49/69/45 47/67/43
f 51/71/47 50/70/46 47/67/43
f 52/72/48 51/71/47 47/67/43
f 53/73/49 52/72/48 47/67/43
f 54/74/50 53/73/49 47/67/43
f 55/75/51 54/74/50 47/67/43
f 56/76/52 55/75/51 47/67/43
f 57/77/53 56/76/52 47/67/43
f 58/78/54 57/77/53 47/67/43
f 59/79/55 58/78/54 47/67/43
f 60/80/56 59/79/55 47/67/43
f 61/81/57 60/80/56 47/67/43
f 62/82/58 61/81/57 47/67/43
f 63/83/59 62/82/58 47/67/43
f 64/84/60 63/83/59 47/67/43
f 65/85/50 64/84/60 47/67/43
f 46/66/42 65/85/50 47/67/43
f 87/86/82 88/87/83 89/88/84
f 89/88/84 90/89/85 87/86/82
f 91/90/86 87/86/82 90/89/85
f 90/89/85 92/91/87 91/90/86
f 93/92/88 91/90/86 92/91/87
f 92/91/87 94/93/89 93/92/88
f 95/94/90 93/92/88 94/93/89
f 94/93/89 96/95/91 95/94/90
f 97/96/92 95/94/90 96/95/91
f 96/95/91 98/97/93 97/96/92
f 99/98/94 97/96/92 98/97/93
f 98/97/93 100/99/95 99/98/94
f 101/100/96 99/98/94 100/99/95
f 100/99/95 102/101/97 101/100/96
f 103/102/98 101/100/96 102/101/97
f 102/101/97 104/103/99 103/102/98
f 105/104/100 103/102/98 104/103/99
f 104/103/99 106/105/101 105/104/100
f 107/106/102 105/104/100 106/105/101
f 106/105/101 108/107/103 107/106/102
f 109/108/104 107/106/102 108/107/103
f 108/107/103 110/109/105 109/108/104
f 111/110/106 109/108/104 110/109/105
f 110/109/105 112/111/107 111/110/106
f 113/112/108 111/110/106 112/111/107
f 112/111/107 114/113/109 113/112/108
f 115/114/110 113/112/108 114/113/109
f 114/113/109 116/115/111 115/114/110
f 117/116/112 115/114/110 116/115/111
f 116/115/111 118/117/113 117/116/112
f 119/118/114 117/116/112 118/117/113
f 118/117/113 120/119/115 119/118/114
f 121/120/116 119/118/114 120/119/115
f 120/119/115 122/121/117 121/120/116
f 123/122/118 121/120/116 122/121/117
f 122/121/117 124/123/119 123/122/118
f 125/124/120 123/122/118 124/123/119
f 124/123/119 126/125/121 125/124/120
f 88/87/83 125/124/120 126/125/121
f 126/125/121 89/88/84 88/87/83
usemtl mat2
f 66/46/61 67/45/62 68/126/63
f 67/45/62 69/47/64 68/126/63
f 69/47/64 70/48/65 68/126/63
f 70/48/65 71/49/66 68/126/63
f 71/49/66 72/50/67 68/126/63
f 72/50/67 73/51/68 68/126/63
f 73/51/68 74/52/69 68/126/63
f 74/52/69 75/53/70 68/126/63
f 75/53/70 76/54/71 68/126/63
f 76/54/71 77/55/72 68/126/63
f 77/55/72 78/56/73 68/126/63
f 78/56/73 79/57/74 68/126/63
f 79/57/74 80/58/75 68/126/63
f 80/58/75 81/59/76 68/126/63
f 81/59/76 82/60/77 68/126/63
f 82/60/77 83/61/78 68/126/63
f 83/61/78 84/62/79 68/126/63
f 84/62/79 85/63/80 68/126/63
f 85/63/80 86/64/81 68/126/63
f 86/64/81 66/46/61 68/126/63
# Vertices: 146, normals: 160, texture coordinates: 126, faces: 160

# pCylinder4_1
o obj2
v 2.46639609 16.73658752 -14.66068649
v 2.8825295 17.55329514 -14.66068649
v 2.8825295 17.55329514 -12.27646828
v 2.46639609 16.73658752 -12.27646828
v 1.81825268 16.08844376 -14.66068649
v 1.81825268 16.08844376 -12.27646828
v 1.00154483 15.67230988 -14.66068649
v 1.00154483 15.67230988 -12.27646828
v 0.09621728 15.52892113 -14.66068649
v 0.09621728 15.52892113 -12.27646828
v -0.80911022 15.67231083 -14.66068649
v -0.80911022 15.67231083 -12.27646828
v -1.62581778 16.08844376 -14.66068649
v -1.62581778 16.08844376 -12.27646828
v -2.27396035 16.73658752 -14.66068649
v -2.27396035 16.73658752 -12.27646828
v -2.69009352 17.55329514 -14.66068649
v -2.69009352 17.55329514 -12.27646828
v -2.83348322 18.45862198 -14.66068649
v -2.83348322 18.45862198 -12.27646828
v -2.69009352 19.36394882 -14.66068649
v -2.69009352 19.36394882 -12.27646828
v -2.27396011 20.18065643 -14.66068649
v -2.27396011 20.18065643 -12.27646828
v -1.62581742 20.8288002 -14.66068649
v -1.62581742 20.8288002 -12.27646828
v -0.80910999 21.24493217 -14.66068649
v -0.80910999 21.24493217 -12.27646828
v 0.09621719 21.38832283 -14.66068649
v 0.09621719 21.38832283 -12.27646828
v 1.00154436 21.24493217 -14.66068649
v 1.00154436 21.24493217 -12.27646828
v 1.81825161 20.8288002 -14.66068649
v 1.81825161 20.8288002 -12.27646828
v 2.46639442 20.18065643 -14.66068649
v 2.46639442 20.18065643 -12.27646828
v 2.88252759 19.36394882 -14.66068649
v 2.88252759 19.36394882 -12.27646828
v 3.02591729 18.45862198 -14.66068649
v 3.02591729 18.45862198 -12.27646828
v 2.8825295 17.55329514 -14.66068649
v 2.8825295 17.55329514 -12.27646828
v 2.46639609 16.73658752 -12.27646828
v 2.8825295 17.55329514 -12.27646828
v 0.09621728 18.45862198 -12.27646828
v 1.81825268 16.08844376 -12.27646828
v 1.00154483 15.67230988 -12.27646828
v 0.09621728 15.52892113 -12.27646828
v -0.80911022 15.67231083 -12.27646828
v -1.62581778 16.08844376 -12.27646828
v -2.27396035 16.73658752 -12.27646828
v -2.69009352 17.55329514 -12.27646828
v -2.83348322 18.45862198 -12.27646828
v -2.69009352 19.36394882 -12.27646828
v -2.27396011 20.18065643 -12.27646828
v -1.62581742 20.8288002 -12.27646828
v -0.80910999 21.24493217 -12.27646828
v 0.09621719 21.38832283 -12.27646828
v 1.00154436 21.24493217 -12.27646828
v 1.81825161 20.8288002 -12.27646828
v 2.46639442 20.18065643 -12.27646828
v 2.88252759 19.36394882 -12.27646828
v 3.02591729 18.45862198 -12.27646828
v 2.8825295 17.55329514 -14.66068649
v 2.46639609 16.73658752 -14.66068649
v 0.09621728 18.45862198 -14.66068649
v 1.81825268 16.08844376 -14.66068649
v 1.00154483 15.67230988 -14.66068649
v 0.09621728 15.52892113 -14.66068649
v -0.80911022 15.67231083 -14.66068649
v -1.62581778 16.08844376 -14.66068649
v -2.27396035 16.73658752 -14.66068649
v -2.69009352 17.55329514 -14.66068649
v -2.83348322 18.45862198 -14.66068649
v -2.69009352 19.36394882 -14.66068649
v -2.27396011 20.18065643 -14.66068649
v -1.62581742 20.8288002 -14.66068649
v -0.80910999 21.24493217 -14.66068649
v 0.09621719 21.38832283 -14.66068649
v 1.00154436 21.24493217 -14.66068649
v 1.81825161 20.8288002 -14.66068649
v 2.46639442 20.18065643 -14.66068649
v 2.88252759 19.36394882 -14.66068649
v 3.02591729 18.45862198 -14.66068649
vn 0.80902 -0.58779 0
vn 0.95106 -0.30902 0
vn 0.58779 -0.80902 0
vn 0.30902 -0.95106 0
vn -0 -1 0
vn -0.30902 -0.95106 0
vn -0.58779 -0.80902 0
vn -0.80902 -0.58778 0
vn -0.95106 -0.30902 0
vn -1 0 0
vn -0.95106 0.30902 0
vn -0.80902 0.58779 0
vn -0.58779 0.80902 0
vn -0.30902 0.95106 0
vn 0 1 0
vn 0.30902 0.95106 0
vn 0.58779 0.80902 0
vn 0.80902 0.58778 0
vn 0.95106 0.30902 0
vn 1 0 0
vn 0 0 1
vn 0 0 1
vn 0 0 1
vn 0 0 1
vn 0 0 1
vn -0 0 1
vn 0 0 1
vn 0 0 -1
vn 0 0 -1
vn 0 0 -1
vn 0 0 -1
vn 0 0 -1
vn 0 0 -1
vn -0 0 -1
vn -0 0 -1
vt 0.3875 0.68844
vt 0.375 0.68844
vt 0.375 0.3125
vt 0.3875 0.3125
vt 0.4 0.68844
vt 0.4 0.3125
vt 0.4125 0.68844
vt 0.4125 0.3125
vt 0.425 0.68844
vt 0.425 0.3125
vt 0.4375 0.68844
vt 0.4375 0.3125
vt 0.45 0.68844
vt 0.45 0.3125
vt 0.4625 0.68844
vt 0.4625 0.3125
vt 0.475 0.68844
vt 0.475 0.3125
vt 0.4875 0.68844
vt 0.4875 0.3125
vt 0.5 0.68844
vt 0.5 0.3125
vt 0.5125 0.68844
vt 0.5125 0.3125
vt 0.525 0.68844
vt 0.525 0.3125
vt 0.5375 0.68844
vt 0.5375 0.3125
vt 0.55 0.68844
vt 0.55 0.3125
vt 0.5625 0.68844
vt 0.5625 0.3125
vt 0.575 0.68844
vt 0.575 0.3125
vt 0.5875 0.68844
vt 0.5875 0.3125
vt 0.6 0.68844
vt 0.6 0.3125
vt 0.6125 0.68844
vt 0.6125 0.3125
vt 0.625 0.68844
vt 0.625 0.3125
vt 0.62641 0.06441
vt 0.6486 0.10797
vt 0.5 0.15
vt 0.59184 0.02984
vt 0.54828 0.00765
vt 0.5 -0
vt 0.45172 0.00765
vt 0.40816 0.02984
vt 0.37359 0.06441
vt 0.3514 0.10797
vt 0.34375 0.15625
vt 0.3514 0.20453
vt 0.37359 0.24809
vt 0.40816 0.28266
vt 0.45172 0.30485
vt 0.5 0.3125
vt 0.54828 0.30485
vt 0.59184 0.28266
vt 0.62641 0.24809
vt 0.6486 0.20453
vt 0.65625 0.15625
vt 0.6486 0.89203
vt 0.62641 0.93559
vt 0.5 0.8375
vt 0.59184 0.97016
vt 0.54828 0.99235
vt 0.5 1
vt 0.45172 0.99235
vt 0.40816 0.97016
vt 0.37359 0.93559
vt 0.3514 0.89203
vt 0.34375 0.84375
vt 0.3514 0.79547
vt 0.37359 0.75191
vt 0.40816 0.71734
vt 0.45172 0.69515
vt 0.5 0.6875
vt 0.54828 0.69515
vt 0.59184 0.71734
vt 0.62641 0.75191
vt 0.6486 0.79547
vt 0.65625 0.84375
usemtl mat1
f 147/127/161 148/128/162 149/129/162
f 149/129/162 150/130/161 147/127/161
f 151/131/163 147/127/161 150/130/161
f 150/130/161 152/132/163 151/131/163
f 153/133/164 151/131/163 152/132/163
f 152/132/163 154/134/164 153/133/164
f 155/135/165 153/133/164 154/134/164
f 154/134/164 156/136/165 155/135/165
f 157/137/166 155/135/165 156/136/165
f 156/136/165 158/138/166 157/137/166
f 159/139/167 157/137/166 158/138/166
f 158/138/166 160/140/167 159/139/167
f 161/141/168 159/139/167 160/140/167
f 160/140/167 162/142/168 161/141/168
f 163/143/169 161/141/168 162/142/168
f 162/142/168 164/144/169 163/143/169
f 165/145/170 163/143/169 164/144/169
f 164/144/169 166/146/170 165/145/170
f 167/147/171 165/145/170 166/146/170
f 166/146/170 168/148/171 167/147/171
f 169/149/172 167/147/171 168/148/171
f 168/148/171 170/150/172 169/149/172
f 171/151/173 169/149/172 170/150/172
f 170/150/172 172/152/173 171/151/173
f 173/153/174 171/151/173 172/152/173
f 172/152/173 174/154/174 173/153/174
f 175/155/175 173/153/174 174/154/174
f 174/154/174 176/156/175 175/155/175
f 177/157/176 175/155/175 176/156/175
f 176/156/175 178/158/176 177/157/176
f 179/159/177 177/157/176 178/158/176
f 178/158/176 180/160/177 179/159/177
f 181/161/178 179/159/177 180/160/177
f 180/160/177 182/162/178 181/161/178
f 183/163/179 181/161/178 182/162/178
f 182/162/178 184/164/179 183/163/179
f 185/165/180 183/163/179 184/164/179
f 184/164/179 186/166/180 185/165/180
f 187/167/162 185/165/180 186/166/180
f 186/166/180 188/168/162 187/167/162
f 189/169/181 190/170/181 191/171/182
f 192/172/181 189/169/181 191/171/182
f 193/173/181 192/172/181 191/171/182
f 194/174/181 193/173/181 191/171/182
f 195/175/183 194/174/181 191/171/182
f 196/176/184 195/175/183 191/171/182
f 197/177/181 196/176/184 191/171/182
f 198/178/181 197/177/181 191/171/182
f 199/179/181 198/178/181 191/171/182
f 200/180/181 199/179/181 191/171/182
f 201/181/181 200/180/181 191/171/182
f 202/182/181 201/181/181 191/171/182
f 203/183/185 202/182/181 191/171/182
f 204/184/181 203/183/185 191/171/182
f 205/185/186 204/184/181 191/171/182
f 206/186/187 205/185/186 191/171/182
f 207/187/181 206/186/187 191/171/182
f 208/188/181 207/187/181 191/171/182
f 209/189/181 208/188/181 191/171/182
f 190/170/181 209/189/181 191/171/182
f 210/190/188 211/191/189 212/192/190
f 211/191/189 213/193/191 212/192/190
f 213/193/191 214/194/192 212/192/190
f 214/194/192 215/195/193 212/192/190
f 215/195/193 216/196/191 212/192/190
f 216/196/191 217/197/191 212/192/190
f 217/197/191 218/198/191 212/192/190
f 218/198/191 219/199/191 212/192/190
f 219/199/191 220/200/191 212/192/190
f 220/200/191 221/201/194 212/192/190
f 221/201/194 222/202/195 212/192/190
f 222/202/195 223/203/191 212/192/190
f 223/203/191 224/204/191 212/192/190
f 224/204/191 225/205/191 212/192/190
f 225/205/191 226/206/191 212/192/190
f 226/206/191 227/207/191 212/192/190
f 227/207/191 228/208/191 212/192/190
f 228/208/191 229/209/191 212/192/190
f 229/209/191 230/210/191 212/192/190
f 230/210/191 210/190/188 212/192/190
# Vertices: 84, normals: 35, texture coordinates: 84, faces: 80

# pCylinder5_2
o obj3
v 2.46639609 16.73658752 11.95539284
v 2.8825295 17.55329514 11.95539284
v 2.8825295 17.55329514 14.33961105
v 2.46639609 16.73658752 14.33961105
v 1.81825268 16.08844376 11.95539284
v 1.81825268 16.08844376 14.33961105
v 1.00154483 15.67230988 11.95539284
v 1.00154483 15.67230988 14.33961105
v 0.09621728 15.52892113 11.95539284
v 0.09621728 15.52892113 14.33961105
v -0.80911022 15.67231083 11.95539284
v -0.80911022 15.67231083 14.33961105
v -1.62581778 16.08844376 11.95539284
v -1.62581778 16.08844376 14.33961105
v -2.27396035 16.73658752 11.95539284
v -2.27396035 16.73658752 14.33961105
v -2.69009352 17.55329514 11.95539284
v -2.69009352 17.55329514 14.33961105
v -2.83348322 18.45862198 11.95539284
v -2.69009352 17.55329514 11.95539284
v -2.69009352 17.55329514 14.33961105
v -2.83348322 18.45862198 14.33961105
v -2.69009352 19.36394882 11.95539284
v -2.69009352 19.36394882 14.33961105
v -2.27396011 20.18065643 11.95539284
v -2.69009352 19.36394882 11.95539284
v -2.69009352 19.36394882 14.33961105
v -2.27396011 20.18065643 14.33961105
v -1.62581742 20.8288002 11.95539284
v -1.62581742 20.8288002 14.33961105
v -0.80910999 21.24493217 11.95539284
v -0.80910999 21.24493217 14.33961105
v 0.09621719 21.38832283 11.95539284
v 0.09621719 21.38832283 14.33961105
v 1.00154436 21.24493217 11.95539284
v 1.00154436 21.24493217 14.33961105
v 1.81825161 20.8288002 11.95539284
v 1.81825161 20.8288002 14.33961105
v 2.46639442 20.18065643 11.95539284
v 2.46639442 20.18065643 14.33961105
v 2.88252759 19.36394882 11.95539284
v 2.88252759 19.36394882 14.33961105
v 3.02591729 18.45862198 11.95539284
v 2.88252759 19.36394882 11.95539284
v 2.88252759 19.36394882 14.33961105
v 3.02591729 18.45862198 14.33961105
v 2.8825295 17.55329514 11.95539284
v 2.8825295 17.55329514 14.33961105
v 2.46639609 16.73658752 14.33961105
v 2.8825295 17.55329514 14.33961105
v 0.09621728 18.45862198 14.33961105
v 1.81825268 16.08844376 14.33961105
v 1.00154483 15.67230988 14.33961105
v 0.09621728 15.52892113 14.33961105
v -0.80911022 15.67231083 14.33961105
v -1.62581778 16.08844376 14.33961105
v -2.27396035 16.73658752 14.33961105
v -2.69009352 17.55329514 14.33961105
v -2.83348322 18.45862198 14.33961105
v -2.69009352 19.36394882 14.33961105
v -2.27396011 20.18065643 14.33961105
v -1.62581742 20.8288002 14.33961105
v -0.80910999 21.24493217 14.33961105
v 0.09621719 21.38832283 14.33961105
v 1.00154436 21.24493217 14.33961105
v 1.81825161 20.8288002 14.33961105
v 2.46639442 20.18065643 14.33961105
v 2.88252759 19.36394882 14.33961105
v 3.02591729 18.45862198 14.33961105
v 2.8825295 17.55329514 11.95539284
v 2.46639609 16.73658752 11.95539284
v 0.09621728 18.45862198 11.95539284
v 1.81825268 16.08844376 11.95539284
v 1.00154483 15.67230988 11.95539284
v -0.80911022 15.67231083 11.95539284
v -1.62581778 16.08844376 11.95539284
v -2.27396035 16.73658752 11.95539284
v -2.69009352 17.55329514 11.95539284
v -2.83348322 18.45862198 11.95539284
v -2.69009352 19.36394882 11.95539284
v -2.27396011 20.18065643 11.95539284
v -1.62581742 20.8288002 11.95539284
v -0.80910999 21.24493217 11.95539284
v 0.09621719 21.38832283 11.95539284
v 1.00154436 21.24493217 11.95539284
v 1.81825161 20.8288002 11.95539284
v 2.46639442 20.18065643 11.95539284
v 2.88252759 19.36394882 11.95539284
v 3.02591729 18.45862198 11.95539284
vn 0.80902 -0.58779 0
vn 0.95106 -0.30902 0
vn 0.58779 -0.80902 0
vn 0.30902 -0.95106 0
vn -0 -1 0
vn -0.30902 -0.95106 0
vn -0.58779 -0.80902 0
vn -0.80902 -0.58778 0
vn -0.95106 -0.30902 0
vn -1 0 0
vn -0.95106 0.30902 0
vn -0.80902 0.58779 0
vn -0.58779 0.80902 0
vn -0.30902 0.95106 0
vn 0 1 0
vn 0.30902 0.95106 0
vn 0.58779 0.80902 0
vn 0.80902 0.58778 0
vn 0.95106 0.30902 0
vn 1 0 0
vn 0 0 1
vn 0 0 1
vn -0 0 1
vn -0 0 1
vn 0 0 1
vn 0 0 1
vn -0 0 1
vn 0 0 1
vn -0 0 1
vn 0 0 1
vn 0 0 1
vn -0 0 -1
vn -0 0 -1
vn -0 0 -1
vn 0 0 -1
vn -0 0 -1
vn -0 0 -1
vn 0 0 -1
vn -0 0 -1
vn 0 0 -1
vn 0 0 -1
vn 0 0 -1
vn 0 0 -1
vn 0 0 -1
vn -0 0 -1
vn 0 0 -1
vn -0 0 -1
vn -0 0 -1
vn -0 0 -1
vt 0.90451 1
vt 0.97553 1
vt 0.97553 0
vt 0.90451 0
vt 0.79389 1
vt 0.79389 0
vt 0.65451 1
vt 0.65451 0
vt 0.5 1
vt 0.5 0
vt 0.34549 1
vt 0.34549 0
vt 0.20611 1
vt 0.20611 0
vt 0.09549 1
vt 0.09549 0
vt 0.02447 1
vt 0.02447 0
vt 1 0.5
vt 1 0
vt 0 0
vt 0 0.5
vt 1 1
vt 0 1
vt 0.79389 1
vt 0.79389 0
vt 0.90451 1
vt 0.90451 0
vt 0.97553 1
vt 0.97553 0
vt 1.54796 0.01761
vt 1.73196 0.24639
vt 0.5 0.5
vt 1.26139 -0.16395
vt 0.90029 -0.28052
vt 0.5 -0.32069
vt 0.09971 -0.28052
vt -0.26139 -0.16395
vt -0.54796 0.01761
vt -0.73195 0.24639
vt -0.79535 0.5
vt -0.73195 0.75361
vt -0.54796 0.98239
vt -0.26139 1.16395
vt 0.09971 1.28052
vt 0.5 1.32069
vt 0.90029 1.28052
vt 1.26139 1.16395
vt 1.54796 0.98239
vt 1.73195 0.75361
vt 1.79535 0.5
vt 0.6486 0.89203
vt 0.62641 0.93559
vt 0.5 0.8375
vt 0.59184 0.97016
vt 0.54828 0.99235
vt 0.45172 0.99235
vt 0.40816 0.97016
vt 0.37359 0.93559
vt 0.3514 0.89203
vt 0.34375 0.84375
vt 0.3514 0.79547
vt 0.37359 0.75191
vt 0.40816 0.71734
vt 0.45172 0.69515
vt 0.5 0.6875
vt 0.54828 0.69515
vt 0.59184 0.71734
vt 0.62641 0.75191
vt 0.6486 0.79547
vt 0.65625 0.84375
usemtl mat1
f 231/211/196 232/212/197 233/213/197
f 233/213/197 234/214/196 231/211/196
f 235/215/198 231/211/196 234/214/196
f 234/214/196 236/216/198 235/215/198
f 237/217/199 235/215/198 236/216/198
f 236/216/198 238/218/199 237/217/199
f 239/219/200 237/217/199 238/218/199
f 238/218/199 240/220/200 239/219/200
f 241/221/201 239/219/200 240/220/200
f 240/220/200 242/222/201 241/221/201
f 243/223/202 241/221/201 242/222/201
f 242/222/201 244/224/202 243/223/202
f 245/225/203 243/223/202 244/224/202
f 244/224/202 246/226/203 245/225/203
f 247/227/204 245/225/203 246/226/203
f 246/226/203 248/228/204 247/227/204
f 249/229/205 250/230/204 251/231/204
f 251/231/204 252/232/205 249/229/205
f 253/233/206 249/229/205 252/232/205
f 252/232/205 254/234/206 253/233/206
f 255/225/207 256/227/206 257/228/206
f 257/228/206 258/226/207 255/225/207
f 259/223/208 255/225/207 258/226/207
f 258/226/207 260/224/208 259/223/208
f 261/221/209 259/223/208 260/224/208
f 260/224/208 262/222/209 261/221/209
f 263/219/210 261/221/209 262/222/209
f 262/222/209 264/220/210 263/219/210
f 265/217/211 263/219/210 264/220/210
f 264/220/210 266/218/211 265/217/211
f 267/235/212 265/217/211 266/218/211
f 266/218/211 268/236/212 267/235/212
f 269/237/213 267/235/212 268/236/212
f 268/236/212 270/238/213 269/237/213
f 271/239/214 269/237/213 270/238/213
f 270/238/213 272/240/214 271/239/214
f 273/229/215 274/233/214 275/234/214
f 275/234/214 276/232/215 273/229/215
f 277/230/197 273/229/215 276/232/215
f 276/232/215 278/231/197 277/230/197
f 279/241/216 280/242/216 281/243/217
f 282/244/216 279/241/216 281/243/217
f 283/245/218 282/244/216 281/243/217
f 284/246/219 283/245/218 281/243/217
f 285/247/220 284/246/219 281/243/217
f 286/248/221 285/247/220 281/243/217
f 287/249/222 286/248/221 281/243/217
f 288/250/216 287/249/222 281/243/217
f 289/251/216 288/250/216 281/243/217
f 290/252/216 289/251/216 281/243/217
f 291/253/216 290/252/216 281/243/217
f 292/254/216 291/253/216 281/243/217
f 293/255/223 292/254/216 281/243/217
f 294/256/216 293/255/223 281/243/217
f 295/257/224 294/256/216 281/243/217
f 296/258/225 295/257/224 281/243/217
f 297/259/226 296/258/225 281/243/217
f 298/260/216 297/259/226 281/243/217
f 299/261/216 298/260/216 281/243/217
f 280/242/216 299/261/216 281/243/217
f 300/262/227 301/263/228 302/264/229
f 301/263/228 303/265/230 302/264/229
f 303/265/230 304/266/231 302/264/229
f 304/266/231 239/219/232 302/264/229
f 239/219/232 305/267/233 302/264/229
f 305/267/233 306/268/234 302/264/229
f 306/268/234 307/269/235 302/264/229
f 307/269/235 308/270/236 302/264/229
f 308/270/236 309/271/237 302/264/229
f 309/271/237 310/272/238 302/264/229
f 310/272/238 311/273/239 302/264/229
f 311/273/239 312/274/240 302/264/229
f 312/274/240 313/275/241 302/264/229
f 313/275/241 314/276/237 302/264/229
f 314/276/237 315/277/242 302/264/229
f 315/277/242 316/278/237 302/264/229
f 316/278/237 317/279/243 302/264/229
f 317/279/243 318/280/244 302/264/229
f 318/280/244 319/281/237 302/264/229
f 319/281/237 300/262/227 302/264/229
# Vertices: 89, normals: 49, texture coordinates: 71, faces: 80

# pCylinder3_3
o obj4
v 1.77404261 14.14122391 -1.2889173
v 2.08551216 14.14122391 -0.67762393
v 2.08551216 1.31196868 -0.67762393
v 1.77404261 1.31196868 -1.2889173
v 1.2889173 14.14122391 -1.77404249
v 1.2889173 1.31196868 -1.77404249
v 0.67762387 14.14122391 -2.08551192
v 0.67762387 1.31196868 -2.08551192
v 0 14.14122391 -2.19283676
v 0 1.31196868 -2.19283676
v -0.67762387 14.14122391 -2.08551168
v -0.67762387 1.31196868 -2.08551168
v -1.28891706 14.14122391 -1.77404213
v -1.28891706 1.31196868 -1.77404213
v -1.77404201 14.14122391 -1.28891695
v -1.77404201 1.31196868 -1.28891695
v -2.08551145 14.14122391 -0.67762369
v -2.08551145 1.31196868 -0.67762369
v -2.19283628 14.14122391 0
v -2.19283628 1.31196868 0
v -2.08551145 14.14122391 0.67762369
v -2.08551145 1.31196868 0.67762369
v -1.77404189 14.14122391 1.28891683
v -1.77404189 1.31196868 1.28891683
v -1.28891683 14.14122391 1.77404177
v -1.28891683 1.31196868 1.77404177
v -0.67762369 14.14122391 2.08551121
v -0.67762369 1.31196868 2.08551121
v -7E-08 14.14122391 2.19283605
v -7E-08 1.31196868 2.19283605
v 0.67762351 14.14122391 2.08551097
v 0.67762351 1.31196868 2.08551097
v 1.28891659 14.14122391 1.77404153
v 1.28891659 1.31196868 1.77404153
v 1.77404141 14.14122391 1.28891671
v 1.77404141 1.31196868 1.28891671
v 2.08551073 14.14122391 0.67762357
v 2.08551073 1.31196868 0.67762357
v 2.19283581 14.14122391 0
v 2.19283581 1.31196868 0
v 2.08551216 14.14122391 -0.67762393
v 2.08551216 1.31196868 -0.67762393
v 1.77404261 1.31196868 -1.2889173
v 2.08551216 1.31196868 -0.67762393
v 0 1.31196868 0
v 1.2889173 1.31196868 -1.77404249
v 0.67762387 1.31196868 -2.08551192
v 0 1.31196868 -2.19283676
v -0.67762387 1.31196868 -2.08551168
v -1.28891706 1.31196868 -1.77404213
v -1.77404201 1.31196868 -1.28891695
v -2.08551145 1.31196868 -0.67762369
v -2.19283628 1.31196868 0
v -2.08551145 1.31196868 0.67762369
v -1.77404189 1.31196868 1.28891683
v -1.28891683 1.31196868 1.77404177
v -0.67762369 1.31196868 2.08551121
v -7E-08 1.31196868 2.19283605
v 0.67762351 1.31196868 2.08551097
v 1.28891659 1.31196868 1.77404153
v 1.77404141 1.31196868 1.28891671
v 2.08551073 1.31196868 0.67762357
v 2.19283581 1.31196868 0
v 2.08551216 14.14122391 -0.67762393
v 1.77404261 14.14122391 -1.2889173
v 0 14.14122391 0
v 1.2889173 14.14122391 -1.77404249
v 0.67762387 14.14122391 -2.08551192
v 0 14.14122391 -2.19283676
v -0.67762387 14.14122391 -2.08551168
v -1.28891706 14.14122391 -1.77404213
v -1.77404201 14.14122391 -1.28891695
v -2.08551145 14.14122391 -0.67762369
v -2.19283628 14.14122391 0
v -2.08551145 14.14122391 0.67762369
v -1.77404189 14.14122391 1.28891683
v -1.28891683 14.14122391 1.77404177
v -0.67762369 14.14122391 2.08551121
v -7E-08 14.14122391 2.19283605
v 0.67762351 14.14122391 2.08551097
v 1.28891659 14.14122391 1.77404153
v 1.77404141 14.14122391 1.28891671
v 2.08551073 14.14122391 0.67762357
v 2.19283581 14.14122391 0
vn 0.80902 0 -0.58779
vn 0.95106 0 -0.30902
vn 0.58779 0 -0.80902
vn 0.30902 0 -0.95106
vn -0 0 -1
vn -0.30902 0 -0.95106
vn -0.58779 0 -0.80902
vn -0.80902 0 -0.58779
vn -0.95106 0 -0.30902
vn -1 0 0
vn -0.95106 0 0.30902
vn -0.80902 0 0.58779
vn -0.58779 0 0.80902
vn -0.30902 0 0.95106
vn 0 0 1
vn 0.30902 0 0.95106
vn 0.58779 0 0.80902
vn 0.80902 0 0.58779
vn 0.95106 0 0.30902
vn 1 0 0
vn 0 -1 0
vn 0 -1 0
vn 0 -1 0
vn 0 -1 0
vn 0 -1 0
vn 0 -1 -0
vn 0 -1 -0
vn 0 -1 0
vn 0 -1 0
vn 0 -1 -0
vn 0 -1 -0
vn 0 1 -0
vn 0 1 0
vn 0 1 0
vn 0 1 0
vn 0 1 -0
vn 0 1 -0
vn 0 1 0
vn 0 1 0
vn 0 1 0
vn 0 1 -0
vn 0 1 -0
vn 0 1 -0
vt 0.3875 0.68844
vt 0.375 0.68844
vt 0.375 0.3125
vt 0.3875 0.3125
vt 0.4 0.68844
vt 0.4 0.3125
vt 0.4125 0.68844
vt 0.4125 0.3125
vt 0.425 0.68844
vt 0.425 0.3125
vt 0.4375 0.68844
vt 0.4375 0.3125
vt 0.45 0.68844
vt 0.45 0.3125
vt 0.4625 0.68844
vt 0.4625 0.3125
vt 0.475 0.68844
vt 0.475 0.3125
vt 0.4875 0.68844
vt 0.4875 0.3125
vt 0.5 0.68844
vt 0.5 0.3125
vt 0.5125 0.68844
vt 0.5125 0.3125
vt 0.525 0.68844
vt 0.525 0.3125
vt 0.5375 0.68844
vt 0.5375 0.3125
vt 0.55 0.68844
vt 0.55 0.3125
vt 0.5625 0.68844
vt 0.5625 0.3125
vt 0.575 0.68844
vt 0.575 0.3125
vt 0.5875 0.68844
vt 0.5875 0.3125
vt 0.6 0.68844
vt 0.6 0.3125
vt 0.6125 0.68844
vt 0.6125 0.3125
vt 0.625 0.68844
vt 0.625 0.3125
vt 0.62641 0.06441
vt 0.6486 0.10797
vt 0.5 0.15
vt 0.59184 0.02984
vt 0.54828 0.00765
vt 0.5 -0
vt 0.45172 0.00765
vt 0.40816 0.02984
vt 0.37359 0.06441
vt 0.3514 0.10797
vt 0.34375 0.15625
vt 0.3514 0.20453
vt 0.37359 0.24809
vt 0.40816 0.28266
vt 0.45172 0.30485
vt 0.5 0.3125
vt 0.54828 0.30485
vt 0.59184 0.28266
vt 0.62641 0.24809
vt 0.6486 0.20453
vt 0.65625 0.15625
vt 0.6486 0.89203
vt 0.62641 0.93559
vt 0.5 0.8375
vt 0.59184 0.97016
vt 0.54828 0.99235
vt 0.5 1
vt 0.45172 0.99235
vt 0.40816 0.97016
vt 0.37359 0.93559
vt 0.3514 0.89203
vt 0.34375 0.84375
vt 0.3514 0.79547
vt 0.37359 0.75191
vt 0.40816 0.71734
vt 0.45172 0.69515
vt 0.5 0.6875
vt 0.54828 0.69515
vt 0.59184 0.71734
vt 0.62641 0.75191
vt 0.6486 0.79547
vt 0.65625 0.84375
usemtl mat1
f 320/282/245 321/283/246 322/284/246
f 322/284/246 323/285/245 320/282/245
f 324/286/247 320/282/245 323/285/245
f 323/285/245 325/287/247 324/286/247
f 326/288/248 324/286/247 325/287/247
f 325/287/247 327/289/248 326/288/248
f 328/290/249 326/288/248 327/289/248
f 327/289/248 329/291/249 328/290/249
f 330/292/250 328/290/249 329/291/249
f 329/291/249 331/293/250 330/292/250
f 332/294/251 330/292/250 331/293/250
f 331/293/250 333/295/251 332/294/251
f 334/296/252 332/294/251 333/295/251
f 333/295/251 335/297/252 334/296/252
f 336/298/253 334/296/252 335/297/252
f 335/297/252 337/299/253 336/298/253
f 338/300/254 336/298/253 337/299/253
f 337/299/253 339/301/254 338/300/254
f 340/302/255 338/300/254 339/301/254
f 339/301/254 341/303/255 340/302/255
f 342/304/256 340/302/255 341/303/255
f 341/303/255 343/305/256 342/304/256
f 344/306/257 342/304/256 343/305/256
f 343/305/256 345/307/257 344/306/257
f 346/308/258 344/306/257 345/307/257
f 345/307/257 347/309/258 346/308/258
f 348/310/259 346/308/258 347/309/258
f 347/309/258 349/311/259 348/310/259
f 350/312/260 348/310/259 349/311/259
f 349/311/259 351/313/260 350/312/260
f 352/314/261 350/312/260 351/313/260
f 351/313/260 353/315/261 352/314/261
f 354/316/262 352/314/261 353/315/261
f 353/315/261 355/317/262 354/316/262
f 356/318/263 354/316/262 355/317/262
f 355/317/262 357/319/263 356/318/263
f 358/320/264 356/318/263 357/319/263
f 357/319/263 359/321/264 358/320/264
f 360/322/246 358/320/264 359/321/264
f 359/321/264 361/323/246 360/322/246
f 362/324/265 363/325/266 364/326/267
f 365/327/268 362/324/265 364/326/267
f 366/328/269 365/327/268 364/326/267
f 367/329/266 366/328/269 364/326/267
f 368/330/266 367/329/266 364/326/267
f 369/331/266 368/330/266 364/326/267
f 370/332/266 369/331/266 364/326/267
f 371/333/266 370/332/266 364/326/267
f 372/334/266 371/333/266 364/326/267
f 373/335/266 372/334/266 364/326/267
f 374/336/270 373/335/266 364/326/267
f 375/337/271 374/336/270 364/326/267
f 376/338/272 375/337/271 364/326/267
f 377/339/273 376/338/272 364/326/267
f 378/340/274 377/339/273 364/326/267
f 379/341/275 378/340/274 364/326/267
f 380/342/266 379/341/275 364/326/267
f 381/343/266 380/342/266 364/326/267
f 382/344/266 381/343/266 364/326/267
f 363/325/266 382/344/266 364/326/267
f 383/345/276 384/346/277 385/347/278
f 384/346/277 386/348/277 385/347/278
f 386/348/277 387/349/277 385/347/278
f 387/349/277 388/350/277 385/347/278
f 388/350/277 389/351/279 385/347/278
f 389/351/279 390/352/280 385/347/278
f 390/352/280 391/353/281 385/347/278
f 391/353/281 392/354/282 385/347/278
f 392/354/282 393/355/277 385/347/278
f 393/355/277 394/356/277 385/347/278
f 394/356/277 395/357/277 385/347/278
f 395/357/277 396/358/283 385/347/278
f 396/358/283 397/359/284 385/347/278
f 397/359/284 398/360/285 385/347/278
f 398/360/285 399/361/286 385/347/278
f 399/361/286 400/362/277 385/347/278
f 400/362/277 401/363/277 385/347/278
f 401/363/277 402/364/277 385/347/278
f 402/364/277 403/365/287 385/347/278
f 403/365/287 383/345/276 385/347/278
# Vertices: 84, normals: 43, texture coordinates: 84, faces: 80

# pCylinder1_4
o obj5
v 8.5020771 4.91171646 -9.16768456
v 9.99479103 4.91171646 -4.81973696
v 9.99479103 0.11552787 -4.81973696
v 8.5020771 0.11552787 -9.16768456
v 6.17712021 4.91171646 -12.61823463
v 6.17712021 0.11552787 -12.61823463
v 3.247504 4.91171646 -14.83362389
v 3.247504 0.11552787 -14.83362389
v 0 4.91171646 -15.5969944
v 0 0.11552787 -15.5969944
v -3.247504 4.91171646 -14.83362293
v -3.247504 0.11552787 -14.83362293
v -6.17711878 4.91171646 -12.61823177
v -6.17711878 0.11552787 -12.61823177
v -8.50207424 4.91171646 -9.16768169
v -8.50207424 0.11552787 -9.16768169
v -9.99478722 4.91171646 -4.81973505
v -9.99478722 0.11552787 -4.81973505
v -10.50914097 4.91171646 0
v -9.99478722 4.91171646 -4.81973505
v -9.99478722 0.11552787 -4.81973505
v -10.50914097 0.11552787 0
v -9.99478722 4.91171646 4.81973505
v -9.99478722 0.11552787 4.81973505
v -8.50207329 4.91171646 9.16768074
v -9.99478722 4.91171646 4.81973505
v -9.99478722 0.11552787 4.81973505
v -8.50207329 0.11552787 9.16768074
v -6.17711735 4.91171646 12.61822891
v -6.17711735 0.11552787 12.61822891
v -3.24750304 4.91171646 14.83361816
v -3.24750304 0.11552787 14.83361816
v -3.1E-07 4.91171646 15.59698868
v -3.1E-07 0.11552787 15.59698868
v 3.24750209 4.91171646 14.83361721
v 3.24750209 0.11552787 14.83361721
v 6.17711639 4.91171646 12.61822796
v 6.17711639 0.11552787 12.61822796
v 8.50207138 4.91171646 9.16767979
v 8.50207138 0.11552787 9.16767979
v 9.99478436 4.91171646 4.8197341
v 9.99478436 0.11552787 4.8197341
v 10.50913811 4.91171646 0
v 9.99478436 4.91171646 4.8197341
v 9.99478436 0.11552787 4.8197341
v 10.50913811 0.11552787 0
v 9.99479103 4.91171646 -4.81973696
v 9.99479103 0.11552787 -4.81973696
v 8.5020771 0.11552787 -9.16768456
v 9.99479103 0.11552787 -4.81973696
v 0 0.11552787 0
v 6.17712021 0.11552787 -12.61823463
v 3.247504 0.11552787 -14.83362389
v 0 0.11552787 -15.5969944
v -3.247504 0.11552787 -14.83362293
v -6.17711878 0.11552787 -12.61823177
v -8.50207424 0.11552787 -9.16768169
v -9.99478722 0.11552787 -4.81973505
v -10.50914097 0.11552787 0
v -9.99478722 0.11552787 4.81973505
v -8.50207329 0.11552787 9.16768074
v -6.17711735 0.11552787 12.61822891
v -3.24750304 0.11552787 14.83361816
v -3.1E-07 0.11552787 15.59698868
v 3.24750209 0.11552787 14.83361721
v 6.17711639 0.11552787 12.61822796
v 8.50207138 0.11552787 9.16767979
v 9.99478436 0.11552787 4.8197341
v 10.50913811 0.11552787 0
v 9.99479103 4.91171646 -4.81973696
v 8.5020771 4.91171646 -9.16768456
v 0 4.91171646 0
v 6.17712021 4.91171646 -12.61823463
v 3.247504 4.91171646 -14.83362389
v 0 4.91171646 -15.5969944
v -3.247504 4.91171646 -14.83362293
v -6.17711878 4.91171646 -12.61823177
v -8.50207424 4.91171646 -9.16768169
v -9.99478722 4.91171646 -4.81973505
v -10.50914097 4.91171646 0
v -9.99478722 4.91171646 4.81973505
v -8.50207329 4.91171646 9.16768074
v -6.17711735 4.91171646 12.61822891
v -3.24750304 4.91171646 14.83361816
v -3.1E-07 4.91171646 15.59698868
v 3.24750209 4.91171646 14.83361721
v 6.17711639 4.91171646 12.61822796
v 8.50207138 4.91171646 9.16767979
v 9.99478436 4.91171646 4.8197341
v 10.50913811 4.91171646 0
vn 0.89815 0 -0.43968
vn 0.97686 0 -0.21386
vn 0.73322 0 -0.67999
vn 0.43436 0 -0.90074
vn 0 0 -1
vn -0.43436 0 -0.90074
vn -0.73322 0 -0.67999
vn -0.89815 0 -0.43968
vn -0.97686 0 -0.21386
vn -1 0 0
vn -0.97686 0 0.21386
vn -0.89815 0 0.43968
vn -0.73322 0 0.67999
vn -0.43436 0 0.90074
vn 0 0 1
vn 0.43436 0 0.90074
vn 0.73322 0 0.67999
vn 0.89815 0 0.43968
vn 0.97686 0 0.21386
vn 1 0 0
vn 0 -1 0
vn 0 -1 0
vn 0 -1 0
vn 0 -1 0
vn 0 -1 0
vn 0 -1 -0
vn 0 -1 -0
vn 0 -1 -0
vn 0 -1 0
vn 0 -1 0
vn 0 -1 0
vn 0 -1 0
vn 0 -1 0
vn 0 -1 0
vn 0 -1 -0
vn 0 1 -0
vn 0 1 0
vn 0 1 -0
vn 0 1 -0
vn 0 1 -0
vn 0 1 0
vn 0 1 0
vn 0 1 -0
vn 0 1 -0
vn 0 1 -0
vt 0.90451 1
vt 0.97553 1
vt 0.97553 -0
vt 0.90451 -0
vt 0.79389 1
vt 0.79389 -0
vt 0.65451 1
vt 0.65451 -0
vt 0.5 1
vt 0.5 -0
vt 0.34549 1
vt 0.34549 -0
vt 0.20611 1
vt 0.20611 -0
vt 0.09549 1
vt 0.09549 -0
vt 0.02447 1
vt 0.02447 -0
vt 0.5 1
vt 1 1
vt 1 -0
vt 0.5 -0
vt 0 1
vt 0 -0
vt 0.09549 1
vt 0.09549 -0
vt 0.20611 1
vt 0.20611 -0
vt 0.34549 1
vt 0.34549 -0
vt 0.65451 1
vt 0.65451 -0
vt 0.79389 1
vt 0.79389 -0
vt 0.90451 1
vt 0.90451 -0
vt 0.97553 1
vt 0.97553 -0
vt 0.5 1
vt -0 1
vt -0 -0
vt 0.5 -0
vt 0.62641 0.06441
vt 0.6486 0.10797
vt 0.5 0.15
vt 0.59184 0.02984
vt 0.54828 0.00765
vt 0.5 -0
vt 0.45172 0.00765
vt 0.40816 0.02984
vt 0.37359 0.06441
vt 0.3514 0.10797
vt 0.34375 0.15625
vt 0.3514 0.20453
vt 0.37359 0.24809
vt 0.40816 0.28266
vt 0.45172 0.30485
vt 0.5 0.3125
vt 0.54828 0.30485
vt 0.59184 0.28266
vt 0.62641 0.24809
vt 0.6486 0.20453
vt 0.65625 0.15625
vt 1.32445 0.78616
vt 1.20132 1.0443
vt 0.5 0.5
vt 1.00954 1.24917
vt 0.76788 1.3807
vt 0.5 1.42602
vt 0.23212 1.3807
vt -0.00954 1.24917
vt -0.20132 1.0443
vt -0.32445 0.78616
vt -0.36688 0.5
vt -0.32445 0.21384
vt -0.20132 -0.0443
vt -0.00954 -0.24917
vt 0.23212 -0.3807
vt 0.5 -0.42602
vt 0.76788 -0.3807
vt 1.00954 -0.24917
vt 1.20132 -0.0443
vt 1.32445 0.21384
vt 1.36688 0.5
usemtl mat1
f 404/366/288 405/367/289 406/368/289
f 406/368/289 407/369/288 404/366/288
f 408/370/290 404/366/288 407/369/288
f 407/369/288 409/371/290 408/370/290
f 410/372/291 408/370/290 409/371/290
f 409/371/290 411/373/291 410/372/291
f 412/374/292 410/372/291 411/373/291
f 411/373/291 413/375/292 412/374/292
f 414/376/293 412/374/292 413/375/292
f 413/375/292 415/377/293 414/376/293
f 416/378/294 414/376/293 415/377/293
f 415/377/293 417/379/294 416/378/294
f 418/380/295 416/378/294 417/379/294
f 417/379/294 419/381/295 418/380/295
f 420/382/296 418/380/295 419/381/295
f 419/381/295 421/383/296 420/382/296
f 422/384/297 423/385/296 424/386/296
f 424/386/296 425/387/297 422/384/297
f 426/388/298 422/384/297 425/387/297
f 425/387/297 427/389/298 426/388/298
f 428/390/299 429/382/298 430/383/298
f 430/383/298 431/391/299 428/390/299
f 432/392/300 428/390/299 431/391/299
f 431/391/299 433/393/300 432/392/300
f 434/394/301 432/392/300 433/393/300
f 433/393/300 435/395/301 434/394/301
f 436/374/302 434/394/301 435/395/301
f 435/395/301 437/375/302 436/374/302
f 438/396/303 436/374/302 437/375/302
f 437/375/302 439/397/303 438/396/303
f 440/398/304 438/396/303 439/397/303
f 439/397/303 441/399/304 440/398/304
f 442/400/305 440/398/304 441/399/304
f 441/399/304 443/401/305 442/400/305
f 444/402/306 442/400/305 443/401/305
f 443/401/305 445/403/306 444/402/306
f 446/404/307 447/405/306 448/406/306
f 448/406/306 449/407/307 446/404/307
f 450/385/289 446/404/307 449/407/307
f 449/407/307 451/386/289 450/385/289
f 452/408/308 453/409/308 454/410/309
f 455/411/310 452/408/308 454/410/309
f 456/412/311 455/411/310 454/410/309
f 457/413/308 456/412/311 454/410/309
f 458/414/308 457/413/308 454/410/309
f 459/415/308 458/414/308 454/410/309
f 460/416/308 459/415/308 454/410/309
f 461/417/312 460/416/308 454/410/309
f 462/418/308 461/417/312 454/410/309
f 463/419/313 462/418/308 454/410/309
f 464/420/314 463/419/313 454/410/309
f 465/421/315 464/420/314 454/410/309
f 466/422/316 465/421/315 454/410/309
f 467/423/317 466/422/316 454/410/309
f 468/424/318 467/423/317 454/410/309
f 469/425/319 468/424/318 454/410/309
f 470/426/320 469/425/319 454/410/309
f 471/427/321 470/426/320 454/410/309
f 472/428/322 471/427/321 454/410/309
f 453/409/308 472/428/322 454/410/309
f 473/429/323 474/430/324 475/431/325
f 474/430/324 476/432/324 475/431/325
f 476/432/324 477/433/324 475/431/325
f 477/433/324 478/434/324 475/431/325
f 478/434/324 479/435/324 475/431/325
f 479/435/324 480/436/324 475/431/325
f 480/436/324 481/437/324 475/431/325
f 481/437/324 482/438/324 475/431/325
f 482/438/324 483/439/324 475/431/325
f 483/439/324 484/440/324 475/431/325
f 484/440/324 485/441/324 475/431/325
f 485/441/324 486/442/324 475/431/325
f 486/442/324 487/443/326 475/431/325
f 487/443/326 488/444/327 475/431/325
f 488/444/327 489/445/328 475/431/325
f 489/445/328 490/446/329 475/431/325
f 490/446/329 491/447/330 475/431/325
f 491/447/330 492/448/331 475/431/325
f 492/448/331 493/449/332 475/431/325
f 493/449/332 473/429/323 475/431/325
# Vertices: 90, normals: 45, texture coordinates: 84, faces: 80

# pCube1_5
o obj6
v 3.18118715 22.02575493 13.07535076
v -3.18118715 22.02575493 13.07535076
v -3.18118715 8.39940834 13.07535076
v 3.18118715 8.39940834 13.07535076
v 3.18118715 22.02575493 9.65206909
v -3.18118715 22.02575493 9.65206909
v 3.18118715 8.39940834 -13.07535076
v -3.18118715 8.39940834 -13.07535076
v -3.18118715 22.02575493 -13.07535076
v 3.18118715 22.02575493 -13.07535076
v 3.18118715 6.33514595 13.07535076
v -3.18118715 6.33514595 13.07535076
v -3.18118715 6.33514595 9.65206909
v 3.18118715 6.33514595 9.65206909
v 3.18118715 8.39940834 9.65206909
v -3.18118715 8.39940834 9.65206909
v -3.18118715 6.33514595 -9.12204742
v 3.18118715 6.33514595 -9.12204742
v -3.18118715 22.02575493 -9.12204742
v 3.18118715 22.02575493 -9.12204742
v -3.18118715 22.02575493 -13.07535076
v -3.18118715 8.39940834 -13.07535076
v -3.18118715 8.39940834 -9.12204742
v -3.18118715 6.33514595 -13.07535076
v 3.18118715 6.33514595 -13.07535076
v 3.18118715 8.39940834 -13.07535076
v 3.18118715 22.02575493 -13.07535076
v 3.18118715 8.39940834 -9.12204742
v -3.18118715 6.33514595 -13.07535076
v -3.18118715 6.33514595 -9.12204742
v -3.18118715 6.33514595 9.65206909
v -3.18118715 6.33514595 13.07535076
v 3.18118715 6.33514595 13.07535076
v 3.18118715 6.33514595 9.65206909
v 3.18118715 6.33514595 -9.12204742
v 3.18118715 6.33514595 -13.07535076
vn 0 0 1
vn 0 1 0
vn 0 0 -1
vn 0 -1 0
vn 1 0 0
vn -1 0 0
vt 0.625 0.25
vt 0.375 0.25
vt 0.375 0.03289
vt 0.625 0.03289
vt 0.64136 0.26636
vt 0.35864 0.26636
vt 0.625 0.71711
vt 0.375 0.71711
vt 0.375 0.5
vt 0.625 0.5
vt 0.625 1
vt 0.375 1
vt 0.375 0.96727
vt 0.625 0.96727
vt 0.65773 0.03289
vt 0.34227 0.03289
vt 0.375 0.78779
vt 0.625 0.78779
vt 0.2689 0.3561
vt 0.7311 0.3561
vt 0.125 0.25
vt 0.125 0.03289
vt 0.16279 0.03289
vt 0.375 0.75
vt 0.625 0.75
vt 0.875 0.03289
vt 0.875 0.25
vt 0.83721 0.03289
vt 0.125 0
vt 0.16279 0
vt 0.34227 0
vt 0.375 0
vt 0.625 0
vt 0.65773 0
vt 0.83721 0
vt 0.875 0
usemtl mat3
f 494/450/333 495/451/333 496/452/333
f 496/452/333 497/453/333 494/450/333
f 498/454/334 499/455/334 495/451/334
f 495/451/334 494/450/334 498/454/334
f 500/456/335 501/457/335 502/458/335
f 502/458/335 503/459/335 500/456/335
f 504/460/336 505/461/336 506/462/336
f 506/462/336 507/463/336 504/460/336
f 498/454/337 494/450/337 497/453/337
f 497/453/337 508/464/337 498/454/337
f 495/451/338 499/455/338 509/465/338
f 509/465/338 496/452/338 495/451/338
f 507/463/336 506/462/336 510/466/336
f 510/466/336 511/467/336 507/463/336
f 503/459/334 502/458/334 512/468/334
f 512/468/334 513/469/334 503/459/334
f 512/468/338 514/470/338 515/471/338
f 515/471/338 516/472/338 512/468/338
f 511/467/336 510/466/336 517/473/336
f 517/473/336 518/474/336 511/467/336
f 519/475/337 520/476/337 513/469/337
f 513/469/337 521/477/337 519/475/337
f 518/474/335 517/473/335 501/457/335
f 501/457/335 500/456/335 518/474/335
f 516/472/338 515/471/338 522/478/338
f 522/478/338 523/479/338 516/472/338
f 509/465/338 516/472/338 523/479/338
f 523/479/338 524/480/338 509/465/338
f 496/452/338 509/465/338 524/480/338
f 524/480/338 525/481/338 496/452/338
f 497/453/333 496/452/333 525/481/333
f 525/481/333 526/482/333 497/453/333
f 508/464/337 497/453/337 526/482/337
f 526/482/337 527/483/337 508/464/337
f 527/483/337 528/484/337 521/477/337
f 521/477/337 508/464/337 527/483/337
f 528/484/337 529/485/337 519/475/337
f 519/475/337 521/477/337 528/484/337
f 498/454/335 508/464/335 509/465/335
f 509/465/335 499/455/335 498/454/335
f 508/464/334 521/477/334 516/472/334
f 516/472/334 509/465/334 508/464/334
f 521/477/333 513/469/333 512/468/333
f 512/468/333 516/472/333 521/477/333
# Vertices: 36, normals: 6, texture coordinates: 36, faces: 44

