# File generated by ImageToStl.com - Free Image and 3D model conversion tools

mtllib tree.mtl

o obj1
v 0.00157364 0 -0.00862015
v -0.00678005 0 -0.00373531
v -0.00221968 0.0345536 -0.00479088
v -0.00510273 0.0390805 -0.00169556
v -0.00652307 0 0.0061377
v -0.00652307 0 0.0061377
v 0.00086214 0 0.00947319
v -0.00185577 0.04428164 0.00812923
v 0.00114643 0.04569458 0.00898247
v 0.00553654 0 0.00561687
v 0.00662182 0.02208477 0.00205387
v 0.00550331 0 -0.00346687
v 0.00485075 0.01702093 -0.00250168
v 0.00157364 0 -0.00862015
v 0.00237463 0.01562714 -0.00484867
v -0.00221968 0.0345536 -0.00479088
v 0 0 0
v -0.00652307 0 0.0061377
v 0.00086214 0 0.00947319
v 0.00553654 0 0.00561687
v 0.00550331 0 -0.00346687
v -0.00455112 0.0638121 -0.00430161
v -0.0068383 0.0880491 -0.00133171
v -0.00249197 0.09605795 -0.00418842
v -0.00650028 0.09349449 -0.00115284
v -0.00036316 0.12939473 -0.00407143
v -0.00444344 0.10334108 -0.00234501
v -0.00430071 0.12893008 1.122E-05
v -0.00606024 0.06986216 0.00183846
v -0.0053768 0.09280522 0.00104645
v -0.00504936 0.10583635 0.00070934
v -0.00498363 0.10843491 0.00357792
v -0.00430071 0.12893008 1.122E-05
v -0.00403095 0.13454051 0.0057513
v -0.00314369 0.06776835 0.00640312
v -0.00334558 0.09338856 0.00680908
v -0.00435341 0.09192518 0.00413921
v -0.00535263 0.0924148 0.00292377
v 9.1E-05 0.09023954 0.00748154
v -0.00103367 0.0905026 0.00735355
v -0.00073719 0.06885803 0.00648098
v -0.00314369 0.06776835 0.00640312
v -0.00334558 0.09338856 0.00680908
v 0.00304012 0.0920142 0.00605061
v 0.00317852 0.0958611 0.00282696
v 0.00259764 0.09606729 0.00502384
v 0.00444002 0.09533755 -0.00140453
v 0.00453358 0.13352606 -3.13E-06
v 0.00418371 0.09764895 -0.00032974
v 0.00213877 0.11772217 -0.00214119
v 0.00301214 0.09545662 -0.00234459
v -0.00016041 0.09951607 -0.00348621
v -0.00036316 0.12939473 -0.00407143
v 0.00435635 0.06118828 -0.0026577
v -0.00455112 0.0638121 -0.00430161
v 0.00198112 0.09551492 -0.00336918
v -0.00249197 0.09605795 -0.00418842
v -0.00047115 0.17302522 -0.00418232
v -0.00413174 0.17302522 0.00079636
v -0.00413174 0.17302522 0.00079636
v -0.00103699 0.13479405 0.00986771
v -0.00131136 0.17302522 0.00677521
v 0.00091404 0.10557745 0.0083313
v 0.00138098 0.17302522 0.0065221
v 0.00362055 0.17302522 6.748E-05
v -0.00047115 0.17302522 -0.00418232
v -0.00185577 0.04428164 0.00812923
v -0.00205868 0.10284338 -0.00416462
v -0.00444344 0.10334108 -0.00234501
v -0.0033989 0.10530712 0.00501476
v -0.00199312 0.10437439 0.00693634
v 0.00175461 0.10378917 0.00619785
v -0.00205868 0.10284338 -0.00416462
v -0.00650028 0.09349449 -0.00115284
v -0.00447224 0.09677672 -0.00362442
v -0.00699905 0.09913145 0.00721695
v -0.00276335 0.09786477 0.0086557
v -0.00643291 0.10000278 0.00668705
v -0.03440927 0.13377986 0.00180149
v -0.03561565 0.13349835 0.00423828
v -0.03157583 0.13353526 0.00600197
v -0.02987087 0.13378427 0.0014394
v -0.03175522 0.13393007 0.00061626
v -0.00447224 0.09677672 -0.00362442
v -0.03430376 0.13346869 0.00610596
v -0.00233112 0.10291498 0.00746151
v -0.00952257 0.10060031 0.00312397
v -0.00872339 0.10037475 0.00058949
v -0.00699905 0.09913145 0.00721695
v -0.00946239 0.10734175 0.00126572
v -0.00982935 0.1076181 0.00311539
v -0.02906525 0.1334619 0.0044146
v -0.0327272 0.13350215 0.00678921
v -0.01169758 0.10480397 0.00676529
v -0.01376177 0.10537049 0.00485882
v -0.01305096 0.1068908 0.00317444
v -0.01169758 0.10480397 0.00676529
v -0.00980289 0.1040252 0.00795959
v -0.00980289 0.1040252 0.00795959
v -0.00233112 0.10291498 0.00746151
v -0.01070921 0.10901155 0.00752201
v -0.00946239 0.10734175 0.00126572
v -0.00498363 0.10843491 0.00357792
v -0.01568102 0.11390846 0.0038937
v -0.01018782 0.10790027 0.00607967
v -0.00444344 0.10334108 -0.00234501
v -0.01305096 0.1068908 0.00317444
v -0.00946239 0.10734175 0.00126572
v -0.00199312 0.10437439 0.00693634
v -0.0033989 0.10530712 0.00501476
v -0.00933643 0.10796754 0.00725082
v -0.00933643 0.10796754 0.00725082
v -0.00233112 0.10291498 0.00746151
v -0.00933643 0.10796754 0.00725082
v -0.01070921 0.10901155 0.00752201
v -0.01376177 0.10537049 0.00485882
v -0.01964138 0.11078621 0.0009988
v -0.0159964 0.11467102 0.00101154
v -0.01830973 0.10940476 0.00333511
v -0.01964138 0.11078621 0.0009988
v -0.01592337 0.10974565 0.00533764
v -0.01504547 0.11171229 0.00511627
v -0.00946239 0.10734175 0.00126572
v -0.0159964 0.11467102 0.00101154
v -0.01018782 0.10790027 0.00607967
v -0.01568102 0.11390846 0.0038937
v -0.01568102 0.11390846 0.0038937
v -0.00980289 0.1040252 0.00795959
v -0.01592337 0.10974565 0.00533764
v -0.02771919 0.12352176 2.045E-05
v -0.02301638 0.12437833 0.00237152
v -0.02855806 0.12159582 0.00219463
v -0.02771919 0.12352176 2.045E-05
v -0.02756121 0.12039466 0.00491207
v -0.02601507 0.12161897 0.00607258
v -0.02448519 0.12355808 0.00485294
v -0.02448519 0.12355808 0.00485294
v -0.02756121 0.12039466 0.00491207
v -0.02987087 0.13378427 0.0014394
v -0.03175522 0.13393007 0.00061626
v -0.03440927 0.13377986 0.00180149
v -0.03440927 0.13377986 0.00180149
v -0.03430376 0.13346869 0.00610596
v -0.03430376 0.13346869 0.00610596
v -0.03561565 0.13349835 0.00423828
v -0.02906525 0.1334619 0.0044146
v -0.03157583 0.13353526 0.00600197
v -0.02301638 0.12437833 0.00237152
v -0.0327272 0.13350215 0.00678921
v -0.01294779 0.12468193 0.03766563
v -0.01237205 0.14790558 0.04635395
v -0.05700573 0.16371673 0.03144382
v -0.05955637 0.1784259 0.02732239
v -0.00154726 0.22880722 0.02354397
v -0.00548119 0.23928251 -0.02224441
v -0.02224327 0.22922403 0.01864517
v -0.03452965 0.236839 -0.03231003
v -0.00821245 0.2372833 -0.04094932
v -0.00902983 0.2106137 -0.04825539
v -0.03427868 0.23383131 -0.04258469
v -0.04050218 0.20997772 -0.04742248
v -0.0388731 0.16996433 -0.05662121
v -0.0157271 0.16162912 -0.06097679
v -0.04731954 0.16936254 -0.03715752
v -0.04290338 0.14714119 -0.0674115
v -0.06096577 0.15538121 -0.0336676
v 0.06120663 0.16137924 0.02762791
v 0.07042267 0.15980103 -0.00594509
v 0.05263281 0.18668462 0.04815433
v 0.05756586 0.19693454 -0.0043367
v -0.0388731 0.16996433 -0.05662121
v -0.03947996 0.19029691 -0.05099796
v -0.05652532 0.17805515 -0.02790676
v -0.03609661 0.21494779 0.02137096
v -0.00557781 0.20889347 0.02835861
v -0.01041489 0.17858015 -0.06256279
v 0.02598293 0.19519149 0.02804184
v 0.03747509 0.21637372 -0.00477215
v 0.01721035 0.21885185 0.01854095
v 0.02089506 0.23086507 -0.00312222
v -0.04342792 0.21387491 -0.03921566
v 0.02704445 0.15244915 0.04383739
v 0.03480118 0.14393488 0.03957397
v -0.00156744 0.13084854 -0.00077087
v 0.04386936 0.1346056 -0.0175917
v 0.0105484 0.13008042 0.04744705
v 0.02991854 0.13620664 0.04330189
v -0.00609468 0.16108999 -0.06478184
v 0.00811148 0.16997732 -0.07010986
v 0.01950067 0.160646 -0.06934124
v -0.01041489 0.17858015 -0.06256279
v 0.01822607 0.13759387 0.04841759
v 0.05063585 0.18323513 -0.05096413
v 0.05705982 0.15813247 -0.05553146
v -0.01294779 0.12468193 0.03766563
v -0.00821245 0.2372833 -0.04094932
v -0.00548119 0.23928251 -0.02224441
v 0.03550486 0.22902744 -0.0213802
v -0.00902983 0.2106137 -0.04825539
v 0.04028417 0.20988044 -0.03605347
v -0.03511324 0.1219803 -0.00397228
v -0.01711985 0.13496168 0.00029881
v -0.02340286 0.13155716 0.02151936
v -0.01041489 0.17858015 -0.06256279
v -0.00609468 0.16108999 -0.06478184
v -0.07101229 0.1489459 0.02745876
v 0.0196311 0.14136387 -0.07715622
v 0.00864965 0.14656427 -0.07698089
v -0.00522104 0.15324195 -0.07576256
v 0.05051109 0.14705372 -0.06556106
v -0.00522104 0.15324195 -0.07576256
v -0.016859 0.15003746 -0.07407654
v -0.02370289 0.13831071 -0.04080418
v -0.04048048 0.13452988 -0.02936497
v -0.03929062 0.1317478 -0.02373569
v -0.05796051 0.13884702 -0.01756622
v -0.04744202 0.13108186 -0.02057426
v -0.07218252 0.13589631 0.0166581
v -0.06885547 0.12612029 0.01090878
v -0.01294779 0.12468193 0.03766563
v -0.00156744 0.13084854 -0.00077087
v -0.02556221 0.14555574 -0.04017277
v -0.03994116 0.14395673 -0.036493
v -0.04991325 0.14316024 -0.01786324
v -0.05545988 0.13960737 0.01588417
v -0.02340286 0.13155716 0.02151936
vn -0.50438 0.04022 -0.86255
vn -0.50438 0.04022 -0.86255
vn -0.50438 0.04022 -0.86255
vn -0.6791 0.0673 -0.73095
vn -0.6791 0.0673 -0.73095
vn -0.9988 0.04151 0.026
vn -0.9988 0.04151 0.026
vn -0.9988 0.04151 0.026
vn -0.41161 0.0024 0.91136
vn -0.41161 0.0024 0.91136
vn -0.41161 0.0024 0.91136
vn -0.2786 0.01205 0.96033
vn -0.2786 0.01205 0.96033
vn 0.63637 0.00432 0.77137
vn 0.63637 0.00432 0.77137
vn 0.84989 0.04297 0.52521
vn 0.84989 0.04297 0.52521
vn 0.84989 0.04297 0.52521
vn 0.99925 0.03852 -0.00366
vn 0.99925 0.03852 -0.00366
vn 0.99925 0.03852 -0.00366
vn 0.95814 -0.09088 -0.27148
vn 0.95814 -0.09088 -0.27148
vn 0.95814 -0.09088 -0.27148
vn 0.79079 0.105 -0.60302
vn 0.79079 0.105 -0.60302
vn 0.79079 0.105 -0.60302
vn 0.66603 0.06766 -0.74285
vn 0.66603 0.06766 -0.74285
vn 0.66603 0.06766 -0.74285
vn 0.62221 0.15338 -0.76768
vn 0.62221 0.15338 -0.76768
vn 0 -1 0
vn -0 -1 0
vn -0 -1 0
vn -0 -1 0
vn -0 -1 0
vn -0 -1 0
vn -0.60064 0.04116 -0.79846
vn -0.60064 0.04116 -0.79846
vn -0.60064 0.04116 -0.79846
vn -0.62835 0.06447 -0.77526
vn -0.62835 0.06447 -0.77526
vn -0.72197 0.06744 -0.68863
vn -0.72197 0.06744 -0.68863
vn -0.88674 0.04231 0.46034
vn -0.88674 0.04231 0.46034
vn -0.88474 0.03967 0.46439
vn -0.88474 0.03967 0.46439
vn -0.99946 0.03221 -0.00628
vn -0.99946 0.03221 -0.00628
vn -0.99946 0.03221 -0.00628
vn -0.9993 0.03544 0.01232
vn -0.9993 0.03544 0.01232
vn -0.9993 0.03544 0.01232
vn -0.84571 -0.01512 0.53342
vn -0.84571 -0.01512 0.53342
vn -0.84571 -0.01512 0.53342
vn -0.94158 0.03795 0.33463
vn -0.94158 0.03795 0.33463
vn -0.94158 0.03795 0.33463
vn -0.77368 -0.00621 0.63355
vn -0.77368 -0.00621 0.63355
vn -0.77368 -0.00621 0.63355
vn -0.12258 -0.04165 0.99158
vn -0.12258 -0.04165 0.99158
vn -0.12258 -0.04165 0.99158
vn -0.014 -0.04047 0.99908
vn -0.014 -0.04047 0.99908
vn -0.014 -0.04047 0.99908
vn -0.24962 -0.01731 0.96819
vn -0.24962 -0.01731 0.96819
vn -0.24962 -0.01731 0.96819
vn 0.95728 0.16471 0.23766
vn 0.95728 0.16471 0.23766
vn 0.95728 0.16471 0.23766
vn 0.94801 0.18368 0.25989
vn 0.94801 0.18368 0.25989
vn 0.66482 0.00032 -0.747
vn 0.66482 0.00032 -0.747
vn 0.66482 0.00032 -0.747
vn 0.84532 0.03803 -0.5329
vn 0.84532 0.03803 -0.5329
vn 0.84532 0.03803 -0.5329
vn 0.36419 0.02279 -0.93104
vn 0.36419 0.02279 -0.93104
vn 0.36419 0.02279 -0.93104
vn 0.57471 -0.01213 -0.81826
vn 0.57471 -0.01213 -0.81826
vn 0.57471 -0.01213 -0.81826
vn 0.17921 -0.00799 -0.98378
vn 0.17921 -0.00799 -0.98378
vn 0.17921 -0.00799 -0.98378
vn 0.17921 -0.00799 -0.98378
vn 0.17921 -0.00799 -0.98378
vn -0.71958 -0.00355 -0.69441
vn -0.71958 -0.00355 -0.69441
vn -0.80559 0.01363 -0.59231
vn -0.99903 0.00305 0.04397
vn -0.99903 0.00305 0.04397
vn -0.99903 0.00305 0.04397
vn -0.80869 0.07303 0.58368
vn -0.80869 0.07303 0.58368
vn -0.90407 0.02801 0.42647
vn -0.90407 0.02801 0.42647
vn -0.90407 0.02801 0.42647
vn 0.91239 0.0395 0.40741
vn 0.91239 0.0395 0.40741
vn 0.09357 0.02605 0.99527
vn 0.09357 0.02605 0.99527
vn 0.09357 0.02605 0.99527
vn 0.91133 0.00473 0.41165
vn 0.91133 0.00473 0.41165
vn 0.91133 0.00473 0.41165
vn 0.94453 0.02125 0.32773
vn 0.94453 0.02125 0.32773
vn 0.60722 0.01546 -0.79438
vn 0.60722 0.01546 -0.79438
vn 0.64821 0.01304 -0.76135
vn 0.64821 0.01304 -0.76135
vn 0.72038 2E-05 -0.69358
vn 0.72038 2E-05 -0.69358
vn 0.72038 2E-05 -0.69358
vn -0.7665 -0.05037 -0.64027
vn -0.7665 -0.05037 -0.64027
vn -0.7665 -0.05037 -0.64027
vn -0.88979 -0.02815 -0.4555
vn -0.88979 -0.02815 -0.4555
vn -0.88979 -0.02815 -0.4555
vn -0.94477 -0.03106 -0.32627
vn -0.94477 -0.03106 -0.32627
vn -0.94477 -0.03106 -0.32627
vn -0.91552 0.03075 0.4011
vn -0.91552 0.03075 0.4011
vn -0.91552 0.03075 0.4011
vn -0.73244 0.04665 0.67923
vn -0.73244 0.04665 0.67923
vn -0.73244 0.04665 0.67923
vn -0.84409 -0.00688 0.53616
vn -0.84409 -0.00688 0.53616
vn -0.30616 0.07757 0.94881
vn -0.30616 0.07757 0.94881
vn -0.06376 0.06967 0.99553
vn -0.06376 0.06967 0.99553
vn -0.06376 0.06967 0.99553
vn -0.34258 0.07329 0.93663
vn -0.34258 0.07329 0.93663
vn -0.34258 0.07329 0.93663
vn 0.79437 0.00597 0.60741
vn 0.79437 0.00597 0.60741
vn 0.92855 0.00908 -0.37109
vn 0.92855 0.00908 -0.37109
vn 0.99787 0.05327 -0.03773
vn 0.99787 0.05327 -0.03773
vn 0.99787 0.05327 -0.03773
vn 0.6864 0.00511 -0.7272
vn 0.6864 0.00511 -0.7272
vn 0.6864 0.00511 -0.7272
vn 0.15529 0.04071 -0.98703
vn 0.15529 0.04071 -0.98703
vn 0.19039 0.03158 -0.9812
vn 0.19039 0.03158 -0.9812
vn 0.19039 0.03158 -0.9812
vn -0.60064 0.04116 -0.79846
vn -0.60064 0.04116 -0.79846
vn -0.60064 0.04116 -0.79846
vn -0.97645 0.02518 -0.21428
vn -0.97645 0.02518 -0.21428
vn -0.81368 -0.03037 0.58052
vn -0.81368 -0.03037 0.58052
vn -0.72741 -0.05431 0.68405
vn -0.72741 -0.05431 0.68405
vn -0.72741 -0.05431 0.68405
vn -0.80799 -0.01954 0.58887
vn -0.80799 -0.01954 0.58887
vn -0.40599 -0.07501 0.91079
vn -0.40599 -0.07501 0.91079
vn 0.00748 -0.76491 0.6441
vn 0.00748 -0.76491 0.6441
vn 0.00748 -0.76491 0.6441
vn 0.91837 -0.00331 0.39571
vn 0.91837 -0.00331 0.39571
vn 0.91837 -0.00331 0.39571
vn 0.92778 -0.00892 0.37302
vn 0.92778 -0.00892 0.37302
vn 0.95474 -0.01202 0.29721
vn 0.95474 -0.01202 0.29721
vn 0.52593 0.40588 -0.74744
vn 0.52593 0.40588 -0.74744
vn 0.67236 0.34064 -0.65719
vn 0.67236 0.34064 -0.65719
vn 0.31071 -0.01651 -0.95036
vn 0.31071 -0.01651 -0.95036
vn 0.31071 -0.01651 -0.95036
vn -0.38124 -0.39415 -0.83625
vn -0.38124 -0.39415 -0.83625
vn -0.38124 -0.39415 -0.83625
vn -0.10792 0.56683 0.81674
vn -0.10792 0.56683 0.81674
vn -0.04872 0.99468 0.09079
vn -0.04872 0.99468 0.09079
vn -0.04872 0.99468 0.09079
vn 0.57949 0.09223 0.80974
vn 0.57949 0.09223 0.80974
vn 0.57949 0.09223 0.80974
vn 0.46444 -0.05934 0.88361
vn 0.46444 -0.05934 0.88361
vn 0.98351 -0.00904 0.18065
vn 0.98351 -0.00904 0.18065
vn -0.99935 0.03043 0.01919
vn -0.99935 0.03043 0.01919
vn -0.99935 0.03043 0.01919
vn 0.55135 0.02925 -0.83376
vn 0.55135 0.02925 -0.83376
vn 0.55135 0.02925 -0.83376
vn 0.70545 0.03414 -0.70793
vn 0.70545 0.03414 -0.70793
vn 0.54391 -0.06778 0.8364
vn 0.54391 -0.06778 0.8364
vn 0.54391 -0.06778 0.8364
vn 0.96611 0.0676 0.24911
vn 0.96611 0.0676 0.24911
vn 0.95698 -0.02816 0.28878
vn 0.95698 -0.02816 0.28878
vn 0.95698 -0.02816 0.28878
vn 0.04585 0.99638 0.07152
vn 0.04585 0.99638 0.07152
vn -0.02344 0.99699 0.07387
vn -0.02344 0.99699 0.07387
vn -0.02344 0.99699 0.07387
vn -0.267 0.02043 -0.96348
vn -0.5778 0.15858 -0.80063
vn -0.5778 0.15858 -0.80063
vn -0.02316 0.99922 0.03213
vn -0.02316 0.99922 0.03213
vn -0.02316 0.99922 0.03213
vn 0.24954 0.20256 0.94694
vn 0.24954 0.20256 0.94694
vn 0.18814 0.07205 -0.9795
vn 0.18814 0.07205 -0.9795
vn 0.18814 0.07205 -0.9795
vn 0.31071 -0.01651 -0.95036
vn 0.31071 -0.01651 -0.95036
vn 0.31071 -0.01651 -0.95036
vn 0.28744 0.26458 0.92053
vn 0.28744 0.26458 0.92053
vn 0.28744 0.26458 0.92053
vn -0.82173 -0.50659 0.261
vn -0.82173 -0.50659 0.261
vn -0.82173 -0.50659 0.261
vn -0.93336 -0.23229 -0.27364
vn -0.93336 -0.23229 -0.27364
vn -0.93336 -0.23229 -0.27364
vn -0.72895 -0.06291 -0.68168
vn -0.69898 -0.48218 0.52814
vn -0.69898 -0.48218 0.52814
vn -0.69898 -0.48218 0.52814
vn -0.38729 -0.3081 0.86895
vn -0.38729 -0.3081 0.86895
vn -0.38729 -0.3081 0.86895
vn -0.76551 -0.46912 0.44036
vn -0.76551 -0.46912 0.44036
vn -0.76551 -0.46912 0.44036
vn -0.15848 -0.20795 0.96522
vn -0.15848 -0.20795 0.96522
vn -0.15848 -0.20795 0.96522
vn -0.52286 -0.26608 0.80983
vn -0.88883 -0.45078 -0.08231
vn -0.88883 -0.45078 -0.08231
vn -0.88883 -0.45078 -0.08231
vn -0.82897 -0.43102 0.35642
vn -0.82897 -0.43102 0.35642
vn 0.14743 -0.97352 0.17469
vn 0.14743 -0.97352 0.17469
vn 0.14743 -0.97352 0.17469
vn 0.08285 0.99292 0.08515
vn 0.08285 0.99292 0.08515
vn 0.08285 0.99292 0.08515
vn -0.62823 0.15149 -0.76314
vn -0.62823 0.15149 -0.76314
vn -0.02414 0.99969 0.00672
vn -0.02414 0.99969 0.00672
vn 0.22774 0.28257 0.93182
vn 0.22774 0.28257 0.93182
vn 0.31742 0.3336 0.88767
vn 0.31742 0.3336 0.88767
vn 0.31742 0.3336 0.88767
vn -0.76709 -0.61359 -0.18727
vn -0.76709 -0.61359 -0.18727
vn -0.76709 -0.61359 -0.18727
vn -0.76708 -0.28057 -0.57695
vn -0.76708 -0.28057 -0.57695
vn -0.75562 -0.6061 0.24836
vn -0.75562 -0.6061 0.24836
vn -0.75562 -0.6061 0.24836
vn -0.58871 -0.68136 0.43494
vn -0.58871 -0.68136 0.43494
vn -0.58871 -0.68136 0.43494
vn -0.61626 -0.65475 0.43763
vn -0.61626 -0.65475 0.43763
vn -0.61626 -0.65475 0.43763
vn 0.09754 0.22111 0.97036
vn 0.09754 0.22111 0.97036
vn 0.09754 0.22111 0.97036
vn 0.08122 0.10177 0.99149
vn 0.08122 0.10177 0.99149
vn 0.08122 0.10177 0.99149
vn -0.14743 0.97353 -0.17468
vn -0.14743 0.97353 -0.17468
vn 0.31051 0.56265 0.76616
vn 0.31051 0.56265 0.76616
vn 0.31051 0.56265 0.76616
vn 0.19012 0.77844 -0.59823
vn 0.19012 0.77844 -0.59823
vn 0.19012 0.77844 -0.59823
vn 0.16497 0.72909 -0.66424
vn 0.16497 0.72909 -0.66424
vn -0.4794 0.17477 -0.86002
vn -0.4794 0.17477 -0.86002
vn -0.54925 -0.03354 -0.83498
vn -0.54925 -0.03354 -0.83498
vn -0.54925 -0.03354 -0.83498
vn 0.44064 0.89091 0.11008
vn 0.44064 0.89091 0.11008
vn 0.44064 0.89091 0.11008
vn 0.30529 0.9119 -0.2743
vn 0.30529 0.9119 -0.2743
vn 0.30529 0.9119 -0.2743
vn 0.18436 0.29471 0.93763
vn 0.18436 0.29471 0.93763
vn 0.58208 0.80129 -0.13824
vn 0.58208 0.80129 -0.13824
vn 0.58208 0.80129 -0.13824
vn 0.32413 0.52557 0.78658
vn 0.32413 0.52557 0.78658
vn -0.17801 -0.69194 -0.69966
vn -0.17801 -0.69194 -0.69966
vn 0.20511 -0.1893 -0.96026
vn 0.20511 -0.1893 -0.96026
vn -0.65036 -0.52628 0.54778
vn -0.65036 -0.52628 0.54778
vn -0.65036 -0.52628 0.54778
vn -0.64624 -0.75889 -0.08038
vn -0.64624 -0.75889 -0.08038
vn -0.64624 -0.75889 -0.08038
vn -0.38505 0.011 0.92283
vn -0.38505 0.011 0.92283
vn -0.38505 0.011 0.92283
vn -0.3429 0.25484 0.90415
vn -0.3429 0.25484 0.90415
vn 0.26573 0.56442 -0.78155
vn 0.26573 0.56442 -0.78155
vn 0.74146 0.66429 0.09462
vn 0.74146 0.66429 0.09462
vn 0.74146 0.66429 0.09462
vn -0.39609 -0.38207 -0.83495
vn 0.70922 0.45141 -0.54151
vn 0.61779 0.76428 0.18496
vn 0.61779 0.76428 0.18496
vn -0.2228 0.42415 0.87776
vn -0.2228 0.42415 0.87776
vn -0.2228 0.42415 0.87776
vn -0.59277 -0.28982 0.75142
vn -0.59277 -0.28982 0.75142
vn -0.59277 -0.28982 0.75142
vn -0.59115 -0.28784 0.75346
vn -0.59115 -0.28784 0.75346
vn -0.57959 -0.64368 0.49975
vn -0.57959 -0.64368 0.49975
vn -0.57959 -0.64368 0.49975
vn 0.05082 -0.04441 -0.99772
vn 0.05082 -0.04441 -0.99772
vn 0.35786 0.37839 -0.85367
vn 0.35786 0.37839 -0.85367
vn 0.35786 0.37839 -0.85367
vn -0.76684 -0.6391 0.05919
vn -0.76684 -0.6391 0.05919
vn -0.62726 -0.44686 -0.63785
vn -0.62726 -0.44686 -0.63785
vn 0.04692 0.09103 0.99474
vn 0.04692 0.09103 0.99474
vn 0.04692 0.09103 0.99474
vn -0.30651 -0.42177 0.85332
vn -0.30651 -0.42177 0.85332
vn 0.74007 0.66577 0.09516
vn 0.74007 0.66577 0.09516
vn 0.74007 0.66577 0.09516
vn 0.7062 0.43212 0.56085
vn 0.7062 0.43212 0.56085
vn 0.7062 0.43212 0.56085
vn 0.38018 0.25859 0.88803
vn 0.38018 0.25859 0.88803
vn 0.53143 0.52421 0.66542
vn 0.53143 0.52421 0.66542
vn -0.50313 -0.52234 0.68849
vn -0.50313 -0.52234 0.68849
vn -0.50313 -0.52234 0.68849
vn -0.76528 -0.64368 -0.00379
vn -0.76528 -0.64368 -0.00379
vn -0.76528 -0.64368 -0.00379
vn 0.40675 0.20826 -0.88949
vn 0.40675 0.20826 -0.88949
vn 0.40675 0.20826 -0.88949
vn 0.40502 0.20802 -0.89033
vn 0.40502 0.20802 -0.89033
vn 0.40502 0.20802 -0.89033
vn -0.71526 -0.36277 -0.59732
vn -0.71526 -0.36277 -0.59732
vn -0.4007 -0.10327 -0.91037
vn -0.4007 -0.10327 -0.91037
vn -0.4007 -0.10327 -0.91037
vn -0.41491 -0.29265 0.86151
vn -0.41491 -0.29265 0.86151
vn -0.41491 -0.29265 0.86151
vn -0.7421 -0.42969 0.51444
vn -0.7421 -0.42969 0.51444
vn -0.7421 -0.42969 0.51444
vn 0.74181 0.36787 0.5607
vn 0.74181 0.36787 0.5607
vn 0.5194 0.27599 0.80873
vn 0.5194 0.27599 0.80873
vn 0.5194 0.27599 0.80873
vn 0.80556 0.57156 -0.1562
vn 0.80556 0.57156 -0.1562
vn 0.43476 0.20807 0.87618
vn 0.43476 0.20807 0.87618
vn 0.43476 0.20807 0.87618
vn 0.54042 0.25694 0.8012
vn 0.54042 0.25694 0.8012
vn -0.37841 -0.26719 0.88624
vn -0.37841 -0.26719 0.88624
vn -0.37841 -0.26719 0.88624
vn -0.8509 -0.51876 0.08283
vn -0.8509 -0.51876 0.08283
vn -0.8509 -0.51876 0.08283
vn -0.80233 -0.39961 -0.44337
vn -0.80233 -0.39961 -0.44337
vn -0.80233 -0.39961 -0.44337
vn -0.39875 -0.31265 0.86212
vn -0.39875 -0.31265 0.86212
vn -0.39875 -0.31265 0.86212
vn -0.23652 0.2239 0.94548
vn -0.23652 0.2239 0.94548
vn -0.23652 0.2239 0.94548
vn -0.0338 0.97362 0.22565
vn -0.0338 0.97362 0.22565
vn -0.0338 0.97362 0.22565
vn -0.14429 0.97299 0.1802
vn -0.14429 0.97299 0.1802
vn 0.02562 0.2634 -0.96435
vn 0.02562 0.2634 -0.96435
vn 0.02562 0.2634 -0.96435
vn -0.03005 0.2062 -0.97805
vn -0.03005 0.2062 -0.97805
vn -0.03005 0.2062 -0.97805
vn -0.3637 -0.91274 -0.18605
vn -0.3637 -0.91274 -0.18605
vn -0.3637 -0.91274 -0.18605
vn -0.26343 0.75874 -0.59574
vn -0.26343 0.75874 -0.59574
vn -0.26343 0.75874 -0.59574
vn -0.68007 0.53999 -0.49589
vn -0.68007 0.53999 -0.49589
vn -0.68007 0.53999 -0.49589
vn 0.95921 0.11583 0.25787
vn 0.95921 0.11583 0.25787
vn 0.95921 0.11583 0.25787
vn 0.93626 0.31767 0.15002
vn 0.93626 0.31767 0.15002
vn -0.91519 0.08182 -0.39463
vn -0.91519 0.08182 -0.39463
vn -0.7623 -0.13327 -0.63336
vn -0.7623 -0.13327 -0.63336
vn -0.7623 -0.13327 -0.63336
vn -0.1497 0.32365 0.93426
vn -0.1497 0.32365 0.93426
vn -0.21658 0.27062 0.93801
vn -0.21658 0.27062 0.93801
vn -0.21658 0.27062 0.93801
vn -0.02961 0.17718 -0.98373
vn -0.02961 0.17718 -0.98373
vn -0.02961 0.17718 -0.98373
vn -0.19123 0.40717 -0.89311
vn -0.19123 0.40717 -0.89311
vn 0.68843 0.47526 0.5479
vn 0.68843 0.47526 0.5479
vn 0.60948 0.64481 0.46125
vn 0.60948 0.64481 0.46125
vn -0.90898 0.39354 -0.1374
vn -0.90898 0.39354 -0.1374
vn -0.90898 0.39354 -0.1374
vn -0.83961 0.30958 -0.44633
vn -0.83961 0.30958 -0.44633
vn 0.21176 -0.27648 0.9374
vn 0.21176 -0.27648 0.9374
vn 0.21176 -0.27648 0.9374
vn 0.57961 -0.38583 0.71776
vn 0.57961 -0.38583 0.71776
vn 0.57961 -0.38583 0.71776
vn 0.07004 -0.99698 -0.03348
vn 0.07004 -0.99698 -0.03348
vn 0.07004 -0.99698 -0.03348
vn 0.86912 -0.44738 0.21088
vn 0.86912 -0.44738 0.21088
vn 0.86912 -0.44738 0.21088
vn 0.15512 0.96674 0.20335
vn 0.56058 0.59234 0.57869
vn 0.56058 0.59234 0.57869
vn 0.56058 0.59234 0.57869
vn -0.17277 -0.28844 -0.94178
vn -0.17277 -0.28844 -0.94178
vn -0.17277 -0.28844 -0.94178
vn -0.18565 0.29705 0.93664
vn -0.18565 0.29705 0.93664
vn -0.16584 0.26147 0.95086
vn -0.16584 0.26147 0.95086
vn -0.16584 0.26147 0.95086
vn -0.81829 0.06133 -0.57153
vn -0.81829 0.06133 -0.57153
vn -0.89052 0.196 -0.41055
vn -0.89052 0.196 -0.41055
vn -0.89052 0.196 -0.41055
vn -0.26965 0.2492 -0.93016
vn -0.26965 0.2492 -0.93016
vn -0.26965 0.2492 -0.93016
vn -0.19543 -0.03047 -0.98024
vn -0.19543 -0.03047 -0.98024
vn -0.19543 -0.03047 -0.98024
vn 0.47356 -0.00958 0.88071
vn 0.47356 -0.00958 0.88071
vn 0.4119 0.17147 0.89495
vn 0.4119 0.17147 0.89495
vn 0.61847 -0.75404 0.22117
vn 0.61847 -0.75404 0.22117
vn 0.60174 -0.77285 0.20151
vn 0.60174 -0.77285 0.20151
vn 0.60174 -0.77285 0.20151
vn 0.31041 0.3047 -0.90045
vn 0.31041 0.3047 -0.90045
vn 0.34872 0.25341 -0.90232
vn 0.34872 0.25341 -0.90232
vn -0.29785 -0.32801 0.89649
vn -0.29785 -0.32801 0.89649
vn 0.02917 0.27866 0.95995
vn 0.02917 0.27866 0.95995
vn 0.24314 0.96011 -0.13812
vn 0.24314 0.96011 -0.13812
vn 0.24314 0.96011 -0.13812
vn 0.23976 0.96621 0.09461
vn 0.23976 0.96621 0.09461
vn 0.43322 0.22576 -0.87256
vn 0.43322 0.22576 -0.87256
vn 0.19592 0.62683 -0.75413
vn 0.19592 0.62683 -0.75413
vn 0.19592 0.62683 -0.75413
vn 0.57826 -0.81485 0.04048
vn 0.57826 -0.81485 0.04048
vn 0.57826 -0.81485 0.04048
vn 0.25446 -0.96383 -0.07929
vn 0.25446 -0.96383 -0.07929
vn 0.25446 -0.96383 -0.07929
vn 0.33178 0.15772 0.93008
vn 0.33178 0.15772 0.93008
vn 0.33178 0.15772 0.93008
vn 0.1941 0.42667 0.88333
vn 0.1941 0.42667 0.88333
vn 0.22672 0.389 -0.8929
vn 0.22672 0.389 -0.8929
vn -0.0061 0.65201 -0.75819
vn -0.0061 0.65201 -0.75819
vn 0.20153 0.53677 -0.81931
vn 0.20153 0.53677 -0.81931
vn 0.12586 0.26783 0.95521
vn 0.12586 0.26783 0.95521
vn 0.01987 0.34701 0.93765
vn 0.01987 0.34701 0.93765
vn 0.01987 0.34701 0.93765
vn -0.5177 0.28523 0.80662
vn -0.36592 0.02764 -0.93024
vn -0.36592 0.02764 -0.93024
vn -0.36611 0.02758 -0.93016
vn -0.36611 0.02758 -0.93016
vn -0.36611 0.02758 -0.93016
vn -0.10858 0.95333 -0.28172
vn -0.10858 0.95333 -0.28172
vn -0.04929 0.99386 -0.09903
vn -0.04929 0.99386 -0.09903
vn -0.04929 0.99386 -0.09903
vn -0.72055 0.6919 -0.04558
vn -0.72055 0.6919 -0.04558
vn -0.7189 0.69369 -0.04442
vn -0.7189 0.69369 -0.04442
vn -0.7189 0.69369 -0.04442
vn -0.20184 -0.07213 0.97676
vn -0.20184 -0.07213 0.97676
vn -0.20184 -0.07213 0.97676
vn 0.91597 0.3272 -0.23227
vn 0.91597 0.3272 -0.23227
vn 0.92354 0.28336 -0.25842
vn -0.70394 -0.70945 -0.03387
vn -0.70394 -0.70945 -0.03387
vn -0.70394 -0.70945 -0.03387
vn -0.96545 -0.21046 -0.15364
vn -0.96545 -0.21046 -0.15364
vn -0.96545 -0.21046 -0.15364
vn 0.6184 0.65874 0.42853
vn 0.6184 0.65874 0.42853
vn 0.6184 0.65874 0.42853
vn 0.97671 0.20999 0.04412
vn 0.97671 0.20999 0.04412
vn -0.93751 0.33092 0.10758
vn -0.93751 0.33092 0.10758
vn -0.93751 0.33092 0.10758
vn -0.66627 0.6971 0.26483
vn -0.66627 0.6971 0.26483
vn 0.16139 0.37163 -0.91424
vn 0.16139 0.37163 -0.91424
vn 0.16139 0.37163 -0.91424
vn -0.13697 0.55184 -0.82263
vn -0.13697 0.55184 -0.82263
vn 0.32903 0.78046 -0.53162
vn 0.32903 0.78046 -0.53162
vn 0.32903 0.78046 -0.53162
vn 0.69374 0.71506 -0.08613
vn 0.69374 0.71506 -0.08613
vn 0.69374 0.71506 -0.08613
vn 0.83991 0.47411 -0.26413
vn 0.83991 0.47411 -0.26413
vn 0.83991 0.47411 -0.26413
vn -0.92282 0.37061 0.1051
vn -0.92282 0.37061 0.1051
vn -0.92282 0.37061 0.1051
vn -0.844 0.53401 -0.0499
vn -0.844 0.53401 -0.0499
vn 0.71654 -0.67642 -0.17034
vn 0.71654 -0.67642 -0.17034
vn 0.71654 -0.67642 -0.17034
vn 0.86492 -0.50179 -0.01046
vn 0.86492 -0.50179 -0.01046
vn 0.86492 -0.50179 -0.01046
vn 0.32491 0.52194 -0.78868
vn 0.32491 0.52194 -0.78868
vn 0.32491 0.52194 -0.78868
vn 0.26806 0.36343 -0.89222
vn 0.26806 0.36343 -0.89222
vn 0.15781 0.96546 0.20732
vn 0.15781 0.96546 0.20732
vn 0.15781 0.96546 0.20732
vn 0.50757 0.71399 0.48227
vn 0.50757 0.71399 0.48227
vn 0.50757 0.71399 0.48227
vn -0.29379 0.76646 -0.57117
vn -0.29379 0.76646 -0.57117
vn -0.21039 0.74109 -0.63759
vn -0.21039 0.74109 -0.63759
vn -0.24338 0.73672 -0.63088
vn -0.24338 0.73672 -0.63088
vn -0.24338 0.73672 -0.63088
vn 0.25289 -0.94441 -0.21006
vn 0.25289 -0.94441 -0.21006
vn 0.00654 -0.97954 -0.20112
vn 0.00654 -0.97954 -0.20112
vn 0.00654 -0.97954 -0.20112
vn -0.42599 -0.90194 0.07101
vn -0.42599 -0.90194 0.07101
vn -0.42599 -0.90194 0.07101
vn -0.43822 -0.86692 -0.23752
vn -0.43822 -0.86692 -0.23752
vn -0.43822 -0.86692 -0.23752
vn 0.60225 -0.78207 -0.16018
vn -0.08783 -0.90028 -0.42637
vn -0.08783 -0.90028 -0.42637
vn -0.08783 -0.90028 -0.42637
vn -0.44964 -0.6511 -0.61147
vn -0.44964 -0.6511 -0.61147
vn -0.44964 -0.6511 -0.61146
vn -0.79038 -0.38662 -0.47521
vn -0.79038 -0.38662 -0.47521
vn -0.79038 -0.38662 -0.47521
vn -0.13078 -0.53528 0.83449
vn -0.13078 -0.53528 0.83449
vn -0.13078 -0.53528 0.83449
vn -0.08219 -0.04462 0.99562
vn -0.08219 -0.04462 0.99562
vn -0.08219 -0.04462 0.99562
vn 0.31757 -0.43345 0.84337
vn 0.31757 -0.43345 0.84337
vn 0.31908 -0.94266 0.09789
vn 0.31908 -0.94266 0.09789
vn 0.31908 -0.94266 0.09789
vn -0.26357 -0.93721 -0.2284
vn -0.26357 -0.93721 -0.2284
vn -0.26357 -0.93721 -0.2284
vn -0.26357 -0.93721 -0.2284
vn -0.26357 -0.93721 -0.2284
vn 0.25666 -0.96454 -0.06162
vn 0.25666 -0.96454 -0.06162
vn 0.25666 -0.96454 -0.06162
vn -0.26354 -0.92776 -0.2642
vn -0.26354 -0.92776 -0.2642
vn 0.08203 -0.99055 -0.10988
vn 0.08203 -0.99055 -0.10988
vn 0.08203 -0.99055 -0.10988
vn 0.08203 -0.99055 -0.10988
vn 0.08203 -0.99055 -0.10988
vn 0.08203 -0.99055 -0.10988
vn -0.48155 -0.87531 -0.04402
vn -0.48155 -0.87531 -0.04402
vn -0.48155 -0.87531 -0.04402
vn -0.48648 -0.82218 -0.29555
vn -0.48648 -0.82218 -0.29555
vn -0.48648 -0.82218 -0.29555
vn -0.6017 -0.77799 -0.1808
vn -0.6017 -0.77799 -0.1808
vn -0.6017 -0.77799 -0.1808
vn -0.6017 -0.77799 -0.1808
vn -0.6017 -0.77799 -0.1808
vn -0.6017 -0.77799 -0.1808
vn -0.35627 -0.92037 -0.16121
vn -0.35627 -0.92037 -0.16121
vn -0.35627 -0.92037 -0.16121
vn -0.28486 -0.89614 0.34027
vn -0.28486 -0.89614 0.34027
vn -0.28486 -0.89614 0.34027
vn -0.83921 -0.17036 -0.51644
vn -0.83921 -0.17036 -0.51644
vn 0.44385 -0.88459 -0.14316
vn 0.44385 -0.88459 -0.14316
vn -0.24998 0.02021 -0.96804
vn -0.38657 -0.54207 -0.74614
vn -0.38657 -0.54207 -0.74614
vn -0.8356 -0.3001 -0.46011
vn -0.8356 -0.3001 -0.46011
vn -0.34471 0.59302 -0.72767
vn -0.34471 0.59302 -0.72767
vn -0.34471 0.59302 -0.72767
vn -0.21317 0.97468 0.06758
vn -0.21317 0.97468 0.06758
vn -0.21317 0.97468 0.06758
vn -0.4724 0.87303 -0.12104
vn -0.4724 0.87303 -0.12104
vn -0.4724 0.87303 -0.12104
vn -0.05234 0.42437 0.90398
vn -0.05234 0.42437 0.90398
vn -0.05234 0.42437 0.90398
vn -0.08783 -0.90027 -0.42637
vn -0.08783 -0.90027 -0.42637
vn -0.08783 -0.90027 -0.42637
vn -0.09151 -0.90028 -0.42559
vn -0.09151 -0.90028 -0.42559
vn -0.09151 -0.90028 -0.42559
vn -0.25127 -0.91518 -0.31513
vn -0.25127 -0.91518 -0.31513
vn -0.25127 -0.91518 -0.31513
vn 0.03362 -0.94058 0.33792
vn 0.03362 -0.94058 0.33792
vn 0.03362 -0.94058 0.33792
vt 0.10147 0.34104
vt 0.10147 0.30436
vt 0.27555 0.31571
vt 0.29835 0.30012
vt 0.10147 0.26066
vt 0.10465 0.1722
vt 0.10334 0.13125
vt 0.32511 0.14071
vt 0.33166 0.12463
vt 0.10255 0.10037
vt 0.21303 0.08062
vt 0.10056 0.05446
vt 0.18748 0.0555
vt 0.10028 0.0219
vt 0.18073 0.03789
vt 0.27786 0.01968
vt 0.06798 0.31831
vt 0.05788 0.27433
vt 0.02459 0.29797
vt 0.02947 0.3281
vt 0.06906 0.35106
vt 0.42295 0.31325
vt 0.54505 0.29829
vt 0.5854 0.31268
vt 0.57249 0.29738
vt 0.75335 0.31209
vt 0.62209 0.30339
vt 0.75101 0.29152
vt 0.45343 0.28231
vt 0.56902 0.2863
vt 0.63693 0.17569
vt 0.64915 0.1625
vt 0.75444 0.18218
vt 0.78062 0.15137
vt 0.44288 0.25932
vt 0.57195 0.25727
vt 0.56458 0.27072
vt 0.56705 0.27685
vt 0.55612 0.12652
vt 0.55728 0.13263
vt 0.44878 0.1316
vt 0.44347 0.14407
vt 0.57124 0.14586
vt 0.56412 0.10854
vt 0.58543 0.09333
vt 0.5859 0.1058
vt 0.58273 0.07181
vt 0.77526 0.08177
vt 0.59512 0.07605
vt 0.69658 0.06361
vt 0.58438 0.0633
vt 0.60581 0.04696
vt 0.7555 0.04961
vt 0.4107 0.06057
vt 0.42602 0.01517
vt 0.58458 0.05583
vt 0.58886 0.0331
vt 0.97316 0.31265
vt 0.97316 0.28756
vt 0.97578 0.16276
vt 0.78035 0.13061
vt 0.97357 0.13271
vt 0.63619 0.11706
vt 0.97291 0.11915
vt 0.97266 0.0842
vt 0.97329 0.05439
vt 0.32456 0.25062
vt 0.61959 0.31256
vt 0.62788 0.1915
vt 0.6364 0.14414
vt 0.62893 0.13297
vt 0.62511 0.10993
vt 0.62305 0.03726
vt 0.57707 0.01323
vt 0.59344 0.02273
vt 0.59783 0.16771
vt 0.59599 0.14119
vt 0.60333 0.16486
vt 0.37755 0.20126
vt 0.38556 0.21237
vt 0.36695 0.22449
vt 0.3547 0.20322
vt 0.36338 0.19757
vt 0.58902 0.30984
vt 0.38059 0.22274
vt 0.62108 0.13489
vt 0.60829 0.27584
vt 0.60715 0.28861
vt 0.60089 0.25522
vt 0.63463 0.14402
vt 0.63114 0.15288
vt 0.35316 0.21868
vt 0.37332 0.22744
vt 0.61239 0.18553
vt 0.63232 0.2671
vt 0.63998 0.27558
vt 0.62946 0.25749
vt 0.61653 0.17356
vt 0.13586 0.23254
vt 0.10944 0.21839
vt 0.15422 0.21712
vt 0.62778 0.16997
vt 0.4143 0.23011
vt 0.46819 0.2317
vt 0.44051 0.24272
vt 0.11293 0.21114
vt 0.15436 0.19111
vt 0.14679 0.20869
vt 0.39923 0.24703
vt 0.40631 0.23735
vt 0.43623 0.24862
vt 0.62675 0.15613
vt 0.32221 0.24291
vt 0.34418 0.23531
vt 0.34947 0.24125
vt 0.1479 0.18196
vt 0.18935 0.17845
vt 0.19318 0.2032
vt 0.65264 0.27477
vt 0.6596 0.28654
vt 0.17679 0.23024
vt 0.18078 0.22085
vt 0.43686 0.21846
vt 0.46978 0.21718
vt 0.34856 0.22786
vt 0.39433 0.23904
vt 0.19113 0.21457
vt 0.62554 0.25148
vt 0.65436 0.26469
vt 0.25999 0.18401
vt 0.24994 0.2069
vt 0.71406 0.28052
vt 0.72376 0.29147
vt 0.24887 0.2443
vt 0.24946 0.23357
vt 0.51254 0.23654
vt 0.25198 0.22087
vt 0.70801 0.26683
vt 0.30472 0.2057
vt 0.31066 0.19804
vt 0.77544 0.2825
vt 0.31809 0.18657
vt 0.31748 0.23228
vt 0.77388 0.26081
vt 0.77403 0.27022
vt 0.30181 0.20837
vt 0.30977 0.21984
vt 0.32141 0.21353
vt 0.31323 0.22541
vt 0.52492 0.51168
vt 0.53632 0.56718
vt 0.42332 0.59329
vt 0.4093 0.62508
vt 0.53824 0.85698
vt 0.27652 0.93032
vt 0.44454 0.8034
vt 0.2341 0.81367
vt 0.17028 0.8971
vt 0.06572 0.78448
vt 0.20439 0.80384
vt 0.17962 0.71604
vt 0.17173 0.53095
vt 0.16313 0.44279
vt 0.24018 0.56047
vt 0.23682 0.45895
vt 0.28381 0.52877
vt 0.68114 0.62416
vt 0.73166 0.61941
vt 0.65148 0.65801
vt 0.72573 0.68529
vt 0.14022 0.54932
vt 0.1587 0.64091
vt 0.26342 0.60344
vt 0.42738 0.73889
vt 0.52994 0.75091
vt 0.00598 0.61601
vt 0.62322 0.70428
vt 0.71985 0.75019
vt 0.61905 0.78255
vt 0.71011 0.81571
vt 0.21338 0.72834
vt 0.62375 0.60332
vt 0.64306 0.58976
vt 0.69876 0.46673
vt 0.74487 0.55752
vt 0.60709 0.54625
vt 0.63299 0.576
vt 0.96616 0.53986
vt 0.93514 0.59036
vt 0.89696 0.57467
vt 0.09632 0.44494
vt 0.61254 0.56844
vt 0.81842 0.64324
vt 0.81395 0.59865
vt 0.58239 0.49254
vt 0.89645 0.89362
vt 0.80445 0.92623
vt 0.76895 0.7768
vt 0.96357 0.77913
vt 0.8063 0.7193
vt 0.39136 0.46561
vt 0.41374 0.42377
vt 0.443 0.47318
vt 0.99762 0.63267
vt 0.15313 0.40277
vt 0.41276 0.55738
vt 0.87593 0.53849
vt 0.89057 0.521
vt 0.9145 0.4906
vt 0.83062 0.57788
vt 0.20323 0.37132
vt 0.21007 0.40851
vt 0.30603 0.42737
vt 0.33172 0.46953
vt 0.34602 0.46588
vt 0.35343 0.50083
vt 0.35365 0.48042
vt 0.39778 0.51014
vt 0.39573 0.49866
vt 0.51142 0.47773
vt 0.42298 0.38089
vt 0.29337 0.43904
vt 0.30126 0.47128
vt 0.33903 0.50493
vt 0.41047 0.52075
vt 0.48315 0.49421
usemtl mat0
f 1/1/1 2/2/2 3/3/3
f 3/3/4 2/2/5 4/4/5
f 2/2/6 5/5/7 4/4/8
f 6/6/9 7/7/10 8/8/11
f 8/8/12 7/7/12 9/9/13
f 7/7/14 10/10/14 9/9/15
f 9/9/16 10/10/17 11/11/18
f 12/12/19 13/13/20 10/10/21
f 10/10/22 13/13/23 11/11/24
f 14/14/25 15/15/26 12/12/27
f 12/12/28 15/15/29 13/13/30
f 14/14/31 16/16/31 15/15/32
f 2/2/33 1/1/33 17/17/33
f 18/18/34 2/2/35 17/17/35
f 19/19/36 18/18/37 17/17/38
f 20/20/33 19/19/33 17/17/33
f 21/21/33 20/20/33 17/17/33
f 1/1/33 21/21/33 17/17/33
f 22/22/39 23/23/40 24/24/41
f 23/23/42 25/25/42 24/24/43
f 26/26/44 27/27/45 28/28/45
f 29/29/46 30/30/47 23/23/47
f 23/23/48 30/30/49 25/25/49
f 31/31/50 32/32/51 33/33/52
f 33/33/53 32/32/54 34/34/55
f 35/35/56 36/36/57 29/29/58
f 29/29/59 36/36/60 37/37/61
f 29/29/62 37/37/63 38/38/64
f 39/39/65 40/40/66 41/41/67
f 41/41/68 40/40/69 42/42/70
f 42/42/71 40/40/72 43/43/73
f 44/44/74 45/45/75 46/46/76
f 44/44/77 47/47/77 45/45/78
f 48/48/79 49/49/80 50/50/81
f 50/50/82 49/49/83 51/51/84
f 51/51/85 52/52/86 50/50/87
f 50/50/88 52/52/89 53/53/90
f 54/54/91 55/55/92 56/56/91
f 56/56/93 55/55/94 57/57/95
f 26/26/96 28/28/97 58/58/97
f 58/58/98 28/28/98 59/59/98
f 33/33/99 34/34/100 60/60/101
f 34/34/102 61/61/102 60/60/103
f 60/60/104 61/61/105 62/62/106
f 61/61/107 63/63/107 62/62/108
f 62/62/109 63/63/110 64/64/111
f 63/63/112 48/48/113 64/64/114
f 64/64/115 48/48/115 65/65/116
f 48/48/117 50/50/118 65/65/117
f 50/50/119 53/53/120 65/65/119
f 65/65/121 53/53/122 66/66/123
f 3/3/124 4/4/125 22/22/126
f 22/22/127 4/4/128 23/23/129
f 4/4/130 5/5/131 23/23/132
f 23/23/133 5/5/134 29/29/135
f 5/5/136 67/67/137 29/29/138
f 29/29/139 67/67/140 35/35/139
f 9/9/141 41/41/142 8/8/141
f 8/8/143 41/41/144 42/42/145
f 9/9/146 44/44/147 41/41/148
f 11/11/149 44/44/150 9/9/149
f 13/13/151 54/54/152 11/11/152
f 11/11/153 54/54/154 44/44/155
f 13/13/156 15/15/157 54/54/158
f 15/15/159 16/16/160 54/54/159
f 54/54/161 16/16/162 55/55/163
f 68/68/164 27/27/165 26/26/166
f 69/69/167 31/31/168 33/33/167
f 70/70/169 71/71/170 61/61/170
f 70/70/171 61/61/172 32/32/173
f 32/32/174 61/61/174 34/34/175
f 71/71/176 63/63/177 61/61/176
f 71/71/178 72/72/179 63/63/180
f 45/45/181 48/48/182 72/72/183
f 72/72/184 48/48/184 63/63/185
f 45/45/186 49/49/187 48/48/186
f 51/51/188 49/49/188 47/47/189
f 52/52/190 51/51/191 56/56/190
f 52/52/192 73/73/193 53/53/194
f 57/57/195 74/74/196 75/75/197
f 76/76/198 77/77/199 78/78/198
f 79/79/200 80/80/201 81/81/202
f 39/39/203 46/46/204 77/77/205
f 44/44/206 39/39/206 41/41/207
f 47/47/208 44/44/208 54/54/209
f 38/38/210 30/30/211 29/29/212
f 51/51/213 47/47/214 54/54/215
f 56/56/216 51/51/217 54/54/216
f 77/77/218 46/46/219 72/72/220
f 46/46/221 45/45/222 72/72/222
f 45/45/223 47/47/224 49/49/225
f 82/82/226 83/83/227 81/81/226
f 81/81/228 83/83/229 79/79/230
f 57/57/231 75/75/231 73/73/231
f 68/68/232 84/84/232 27/27/233
f 80/80/234 85/85/235 81/81/236
f 77/77/237 72/72/238 86/86/237
f 56/56/239 57/57/240 52/52/241
f 52/52/242 57/57/243 73/73/244
f 39/39/245 44/44/246 46/46/247
f 30/30/248 87/87/249 25/25/250
f 25/25/251 87/87/252 88/88/253
f 84/84/254 25/25/254 88/88/254
f 37/37/255 36/36/256 89/89/257
f 76/76/258 43/43/259 77/77/260
f 38/38/261 37/37/262 89/89/263
f 39/39/264 77/77/265 40/40/266
f 43/43/267 40/40/267 77/77/267
f 30/30/268 38/38/269 87/87/270
f 87/87/271 38/38/272 89/89/271
f 90/90/273 32/32/274 91/91/275
f 92/92/276 82/82/277 81/81/278
f 27/27/279 84/84/279 88/88/280
f 93/93/281 81/81/282 85/85/282
f 71/71/283 86/86/284 72/72/284
f 76/76/285 78/78/286 94/94/287
f 87/87/288 95/95/289 88/88/290
f 88/88/291 95/95/292 96/96/291
f 89/89/293 97/97/294 87/87/295
f 87/87/296 97/97/297 95/95/298
f 77/77/299 98/98/300 78/78/301
f 77/77/302 86/86/303 98/98/304
f 99/99/305 100/100/306 101/101/307
f 32/32/308 102/102/308 91/91/309
f 103/103/310 104/104/311 105/105/312
f 69/69/313 102/102/314 31/31/315
f 102/102/316 32/32/317 31/31/317
f 106/106/318 107/107/319 108/108/319
f 96/96/320 27/27/321 88/88/322
f 109/109/323 110/110/324 111/111/325
f 111/111/326 110/110/327 105/105/328
f 71/71/329 112/112/330 86/86/330
f 113/113/331 114/114/332 115/115/333
f 110/110/334 103/103/335 105/105/334
f 116/116/336 117/117/337 107/107/337
f 107/107/338 117/117/338 118/118/339
f 97/97/340 119/119/341 95/95/342
f 95/95/343 119/119/344 120/120/345
f 99/99/346 101/101/347 121/121/348
f 121/121/349 101/101/350 122/122/349
f 103/103/351 123/123/351 104/104/352
f 104/104/353 123/123/354 124/124/355
f 108/108/356 107/107/356 118/118/356
f 114/114/357 125/125/357 126/126/357
f 114/114/358 126/126/359 115/115/358
f 101/101/360 127/127/361 122/122/362
f 128/128/363 129/129/364 97/97/365
f 97/97/366 129/129/366 119/119/367
f 98/98/368 94/94/369 78/78/370
f 117/117/371 130/130/372 118/118/371
f 118/118/373 130/130/374 131/131/375
f 119/119/376 132/132/377 120/120/376
f 120/120/378 132/132/378 133/133/379
f 121/121/380 122/122/381 134/134/382
f 134/134/383 122/122/384 135/135/384
f 104/104/385 124/124/386 136/136/387
f 137/137/388 118/118/389 131/131/390
f 135/135/391 127/127/392 137/137/392
f 122/122/393 127/127/394 135/135/393
f 129/129/395 138/138/396 119/119/397
f 119/119/398 138/138/399 132/132/400
f 131/131/401 130/130/402 139/139/403
f 139/139/404 130/130/405 140/140/406
f 132/132/407 141/141/408 133/133/408
f 130/130/409 142/142/410 140/140/411
f 135/135/412 143/143/413 134/134/414
f 138/138/415 144/144/416 145/145/417
f 131/131/418 146/146/418 137/137/419
f 137/137/420 146/146/421 147/147/422
f 92/92/423 148/148/423 82/82/424
f 137/137/425 147/147/426 135/135/427
f 135/135/428 147/147/429 149/149/428
f 135/135/430 149/149/431 143/143/432
f 138/138/433 145/145/434 132/132/435
f 132/132/436 145/145/437 141/141/438
f 150/150/439 151/151/440 152/152/441
f 152/152/442 151/151/443 153/153/444
f 154/154/445 155/155/446 156/156/447
f 156/156/448 155/155/448 157/157/449
f 158/158/450 159/159/451 160/160/452
f 160/160/453 159/159/454 161/161/455
f 162/162/456 163/163/457 164/164/458
f 163/163/459 165/165/460 164/164/461
f 164/164/462 165/165/463 166/166/464
f 167/167/465 168/168/466 169/169/467
f 169/169/468 168/168/468 170/170/469
f 171/171/470 164/164/471 172/172/470
f 172/172/472 164/164/473 173/173/474
f 174/174/475 175/175/476 156/156/475
f 156/156/477 175/175/478 154/154/479
f 161/161/480 159/159/481 172/172/482
f 172/172/483 159/159/483 176/176/484
f 177/177/485 178/178/485 179/179/486
f 179/179/487 178/178/487 180/180/488
f 157/157/489 160/160/490 181/181/491
f 161/161/492 181/181/493 160/160/493
f 182/182/494 183/183/495 169/169/496
f 169/169/497 183/183/498 167/167/499
f 184/184/500 185/185/501 186/186/502
f 187/187/503 185/185/504 183/183/505
f 169/169/506 170/170/506 177/177/506
f 177/177/507 170/170/508 178/178/509
f 188/188/510 189/189/511 190/190/512
f 151/151/513 175/175/514 153/153/514
f 153/153/515 175/175/516 174/174/517
f 172/172/518 173/173/518 161/161/519
f 161/161/520 173/173/521 181/181/522
f 172/172/523 176/176/524 171/171/525
f 162/162/526 191/191/527 163/163/528
f 182/182/529 192/192/530 183/183/530
f 183/183/531 192/192/531 187/187/532
f 185/185/533 168/168/533 183/183/534
f 183/183/535 168/168/536 167/167/537
f 189/189/538 193/193/538 190/190/539
f 190/190/540 193/193/541 194/194/540
f 195/195/542 186/186/542 151/151/543
f 151/151/544 192/192/545 182/182/545
f 196/196/546 197/197/547 198/198/548
f 198/198/549 197/197/549 180/180/550
f 196/196/551 198/198/552 199/199/552
f 199/199/553 198/198/554 200/200/555
f 201/201/556 202/202/557 203/203/558
f 195/195/559 184/184/560 186/186/561
f 154/154/562 175/175/563 179/179/564
f 179/179/565 175/175/566 177/177/565
f 199/199/567 200/200/568 204/204/568
f 204/204/569 200/200/570 189/189/569
f 200/200/571 193/193/572 189/189/571
f 175/175/573 151/151/574 177/177/573
f 151/151/575 182/182/576 177/177/577
f 182/182/578 169/169/578 177/177/578
f 163/163/579 191/191/579 205/205/580
f 188/188/581 204/204/582 189/189/583
f 160/160/584 157/157/584 158/158/585
f 157/157/586 155/155/587 158/158/588
f 166/166/589 206/206/590 164/164/590
f 164/164/591 206/206/592 152/152/593
f 152/152/594 206/206/595 150/150/596
f 170/170/597 168/168/597 193/193/598
f 193/193/599 168/168/599 194/194/599
f 173/173/600 164/164/601 153/153/602
f 153/153/603 164/164/604 152/152/605
f 180/180/606 178/178/607 198/198/608
f 198/198/609 178/178/610 200/200/610
f 181/181/611 174/174/612 157/157/613
f 157/157/614 174/174/615 156/156/615
f 207/207/616 208/208/617 190/190/618
f 190/190/619 208/208/620 188/188/619
f 188/188/621 208/208/622 209/209/623
f 178/178/624 170/170/625 200/200/626
f 200/200/627 170/170/628 193/193/629
f 181/181/630 173/173/631 174/174/632
f 174/174/633 173/173/633 153/153/634
f 168/168/635 185/185/636 194/194/637
f 194/194/638 185/185/639 210/210/640
f 194/194/641 210/210/642 190/190/643
f 190/190/644 210/210/644 207/207/645
f 197/197/646 154/154/647 180/180/648
f 180/180/649 154/154/650 179/179/651
f 211/211/652 212/212/653 205/205/652
f 205/205/654 212/212/654 163/163/655
f 163/163/656 212/212/657 165/165/658
f 207/207/659 210/210/659 185/185/660
f 184/184/661 208/208/662 185/185/663
f 185/185/664 208/208/665 207/207/666
f 209/209/667 208/208/668 184/184/669
f 201/201/670 213/213/670 202/202/670
f 214/214/671 213/213/672 215/215/673
f 216/216/674 214/214/675 215/215/676
f 215/215/676 217/217/675 216/216/674
f 218/218/677 216/216/678 217/217/678
f 217/217/678 219/219/679 218/218/677
f 203/203/680 218/218/681 219/219/682
f 151/151/683 186/186/684 192/192/685
f 187/187/686 192/192/687 186/186/687
f 186/186/688 185/185/689 187/187/690
f 220/220/691 203/203/692 221/221/692
f 221/221/693 203/203/694 202/202/695
f 212/212/696 211/211/697 222/222/698
f 211/211/699 221/221/699 202/202/700
f 212/212/701 222/222/702 165/165/703
f 165/165/704 222/222/705 223/223/706
f 165/165/707 223/223/708 166/166/709
f 166/166/710 223/223/711 224/224/712
f 166/166/713 224/224/714 206/206/715
f 206/206/716 224/224/717 225/225/718
f 150/150/719 206/206/720 226/226/721
f 226/226/722 206/206/723 225/225/724
f 211/211/725 213/213/726 222/222/725
f 211/211/727 202/202/728 213/213/728
f 222/222/729 213/213/729 223/223/729
f 223/223/730 213/213/730 214/214/731
f 223/223/732 214/214/733 224/224/732
f 224/224/734 214/214/735 216/216/736
f 225/225/737 224/224/738 218/218/739
f 218/218/740 224/224/741 216/216/742
f 203/203/743 225/225/744 218/218/745
f 215/215/746 213/213/747 201/201/748
f 217/217/749 215/215/750 201/201/751
f 219/219/752 217/217/753 201/201/754
f 203/203/755 219/219/756 201/201/757
# Vertices: 226, normals: 757, texture coordinates: 226, faces: 301

